<?xml version="1.0" standalone="no"?>
<!DOCTYPE svg PUBLIC "-//W3C//DTD SVG 1.1//EN" "http://www.w3.org/Graphics/SVG/1.1/DTD/svg11.dtd" >
<!--
2013-9-30: Created.
-->
<svg>
<metadata>
Created by iconfont
</metadata>
<defs>

<font id="iconfont" horiz-adv-x="1024" >
  <font-face
    font-family="iconfont"
    font-weight="500"
    font-stretch="normal"
    units-per-em="1024"
    ascent="896"
    descent="-128"
  />
    <missing-glyph />
    
    <glyph glyph-name="shuaxin" unicode="&#58880;" d="M872.4142-5.9945 727.871488-5.9945c131.5082 76.8471 227.7161 220.5757 227.7161 385.239 0 245.2306-194.3982 448.8069-444.6515 448.9421-15.3692 0-27.8057-12.4641-27.8057-27.8057s12.4375-27.8057 27.8057-27.8057c222.4476-0.1905 389.0401-178.8119 389.0401-393.3307 0-164.8548-109.0775-305.7316-250.0096-362.3485l0 199.55712c0 15.3713-12.4365 27.8057-27.8057 27.8057-15.3692 0-27.8057-12.4355-27.8057-27.8057L594.355188-61.606912l278.061056 0c15.3692 0 27.8057 12.4375 27.8057 27.8067C900.2209-18.432 887.7834-5.9945 872.4142-5.9945zM510.935-5.9945c-222.4486 0.1905-389.0401 178.8109-389.0401 393.3317 0 164.8538 109.0796 305.7306 250.0106 362.3475l0-199.55712c0-15.3426 12.4375-27.8067 27.8057-27.8067s27.8057 12.4641 27.8057 27.8067L427.5169 828.187648 149.456896 828.187648c-15.3692 0-27.8057-12.4641-27.8057-27.8057s12.4375-27.8057 27.8057-27.8057l138.487808 0C159.5034 693.7467 66.2825 549.4753 66.2825 387.3372c0-245.2306 194.3982-448.8079 444.6525-448.9441 15.3692 0 27.8057 12.4375 27.8057 27.8067C538.7418-18.432 526.3043-5.9945 510.935-5.9945z"  horiz-adv-x="1024" />

    
    <glyph glyph-name="rili" unicode="&#58914;" d="M246.921623 553.948783l65.901573 0c9.911127 0 18.041627 8.102538 18.041627 18.012236L330.864823 716.931784c0 9.910721-8.130501 18.013259-18.041627 18.013259l-65.901573 0c-10.026765 0-18.012974-8.102538-18.012974-18.013259l0-144.971789C228.908649 562.051321 236.894858 553.948783 246.921623 553.948783zM711.235135 553.948783l65.93125 0c9.93978 0 18.012974 8.102538 18.012974 18.012236L795.179359 716.931784c0 9.910721-8.073193 18.013259-18.012974 18.013259l-65.93125 0c-9.938757 0-18.128612-8.102538-18.128612-18.013259l0-144.971789C693.106523 562.051321 701.296378 553.948783 711.235135 553.948783zM854.727986 665.635491l-23.144041 0 0-93.675496c0-29.961382-24.42425-54.502311-54.41756-54.502311l-65.93125 0c-29.96261 0-54.504545 24.539906-54.504545 54.502311l0 93.675496L367.240756 665.635491l0-93.675496c0-29.961382-24.42425-54.502311-54.41756-54.502311l-65.901573 0c-30.021964 0-54.475891 24.539906-54.475891 54.502311l0 93.675496-23.376341 0c-57.769025 0-104.783685-46.983057-104.783685-104.809067l0-194.57758 0-396.210857c0-57.999972 47.01466-104.984053 104.783685-104.984053l685.658595 0c57.914341 0 104.987331 46.984081 104.987331 104.984053L959.715317 366.248843 959.715317 560.827447C959.715317 618.652434 912.642327 665.635491 854.727986 665.635491zM893.317421-29.96099c0-21.335934-17.28435-38.587853-38.589435-38.587853L169.069391-68.548844c-21.131115 0-38.357135 17.251919-38.357135 38.587853L130.712256 366.248843l762.606188 0L893.318444-29.96099z"  horiz-adv-x="1024" />

    
    <glyph glyph-name="qm" unicode="&#58950;" d="M450.267 111.755l0-92.511 92.511 0 0 92.511-92.511 0zM689.448 431.72c13.538 24.367 20.311 50.991 20.311 79.875 0 49.938-19.261 92.516-57.765 127.713-38.517 35.197-90.114 52.8-154.797 52.8-61.077 0-110.191-16.4-147.342-49.188-37.16-32.798-59.497-80.032-67.014-141.703l83.486-9.927c7.218 46.025 22.41 79.875 45.576 101.533 23.166 21.665 52.047 32.494 86.647 32.494 35.802 0 66.038-11.957 90.711-35.874 24.667-23.92 37.01-51.675 37.01-83.266 0-17.451-4.222-33.55-12.642-48.284-8.425-14.747-26.698-34.526-54.83-59.346s-47.607-43.701-58.442-56.637c-14.741-17.754-25.424-35.354-32.037-52.797-9.028-23.172-13.537-50.701-13.537-82.584 0-5.418 0.146-13.539 0.45-24.374l78.069 0c0.599 32.495 2.855 55.966 6.772 70.4 3.903 14.44 9.926 27.229 18.047 38.363 8.127 11.123 25.425 28.43 51.901 51.895 39.408 34.899 65.886 64.531 79.426 88.907l0 0z"  horiz-adv-x="1024" />

    
    <glyph glyph-name="xiaosanjiaodown" unicode="&#58894;" d="M735.136 406.72 512 176 288.864 406.72Z"  horiz-adv-x="1024" />

    
    <glyph glyph-name="xiaosanjiaoup" unicode="&#58895;" d="M288.864 175.968 511.968 406.688 735.136 176Z"  horiz-adv-x="1024" />

    
    <glyph glyph-name="htmal5icon20" unicode="&#58937;" d="M727.308741 495.381763c-28.739555 0-53.887304-10.777461-71.850421-28.739555l-255.06828 147.292648c3.591805 7.184633 3.591805 17.963117 3.591805 25.14775 0 61.072961-46.702672 107.775632-107.775632 107.775632-61.072961 0-107.775632-46.702672-107.775632-107.775632 0-61.072961 46.702672-107.775632 107.775632-107.775632 28.740578 0 53.887304 10.777461 71.850421 28.740578l255.069303-147.292648c-3.592828-7.184633-3.592828-17.963117-3.592828-25.14775 0-7.184633 0-17.962094 3.592828-25.14775l-255.069303-150.885476c-17.962094 17.963117-43.109844 28.739555-71.850421 28.739555-57.480132 0-104.182804-46.702672-104.182804-104.182804 0-57.480132 46.702672-104.182804 104.182804-104.182804s104.182804 46.702672 104.182804 104.182804c0 7.184633 0 14.370289-3.592828 25.14775l255.06828 150.885476c17.962094-17.962094 43.109844-28.739555 71.850421-28.739555 61.072961 0 107.775632 46.702672 107.775632 107.775632C831.491545 452.27192 788.381701 495.381763 727.308741 495.381763z"  horiz-adv-x="1024" />

    
    <glyph glyph-name="shizhong" unicode="&#59282;" d="M927.178349 272.726707c-10.505261-39.22128-26.78197-77.051887-48.351218-112.467491-6.219655-10.121522-19.394722-13.351076-29.547966-7.194866-10.121522 6.187933-13.351076 19.426445-7.179516 29.579689 19.47454 31.882128 34.121122 65.971527 43.602054 101.227496 26.717502 99.804077 12.967336 204.053396-38.661531 293.560966-51.676963 89.443102-135.092791 153.464207-234.913241 180.198082-99.804077 26.717502-204.053396 13.078877-293.544593-38.598086-89.459474-51.676963-153.479557-135.092791-180.213431-234.896868C83.143117 278.066319 205.84367 65.522552 411.880233 10.312112c102.986559-27.597545 210.16151-11.975752 301.635875 43.922349 10.153244 6.187933 23.376407 2.958378 29.531594-7.131421 6.204305-10.153244 3.021823-23.391756-7.131421-29.547966-68.785619-42.035372-145.565307-63.541175-223.480864-63.541175-37.20639 0-74.66963 4.892427-111.651916 14.83794-228.964762 61.318554-365.28859 297.462832-303.938314 526.363126 29.692253 110.917182 100.860129 203.606211 200.264093 261.007549 99.453083 57.401338 215.261669 72.623018 326.162478 42.930765C852.20582 737.834724 988.529649 501.691469 927.178349 272.726707L927.178349 272.726707zM512.004605 362.473731c-11.864212 0-21.457708 9.657964-21.457708 21.537526L490.546897 641.868045c0 11.879562 9.593496 21.473057 21.457708 21.473057 11.879562 0 21.521153-9.593496 21.521153-21.473057l0-257.856789C533.525758 372.130671 523.884167 362.473731 512.004605 362.473731L512.004605 362.473731zM726.898907 362.473731l-214.894302 0c-11.864212 0-21.457708 9.657964-21.457708 21.537526s9.593496 21.441335 21.457708 21.441335l214.894302 0c11.879562 0 21.521153-9.561773 21.521153-21.441335S738.778468 362.473731 726.898907 362.473731L726.898907 362.473731z"  horiz-adv-x="1024" />

    
    <glyph glyph-name="jianhao" unicode="&#59177;" d="M863.74455 351.99914 163.424056 351.99914c-17.664722 0-32.00086 14.336138-32.00086 32.00086s14.336138 32.00086 32.00086 32.00086l700.320495 0c17.695686 0 31.99914-14.336138 31.99914-32.00086S881.440237 351.99914 863.74455 351.99914z"  horiz-adv-x="1024" />

    
    <glyph glyph-name="dianzan" unicode="&#58892;" d="M884.876 472.857h-237.905c92.186 340.464-63.517 357.853-63.517 357.853-65.993 0-52.312-52.182-57.303-60.882 0-166.502-176.85-296.972-176.85-296.972v-472.172c0-46.608 63.517-63.394 88.433-63.394h357.452c33.641 0 61.036 88.224 61.036 88.224 88.434 300.706 88.434 390.177 88.434 390.177 0.001 62.128-59.781 57.164-59.781 57.164v0 0zM251.671 472.7h-142.457c-29.42 0-29.873-28.896-29.873-28.896l29.42-476.203c0-30.309 30.361-30.309 30.361-30.309h123.297c25.686 0 25.459 20.050 25.459 20.050l-0 479.247c0 36.574-36.208 36.111-36.208 36.111v0 0zM251.671 472.7z"  horiz-adv-x="1024" />

    
    <glyph glyph-name="xinheart118" unicode="&#59221;" d="M677.51936 703.96928c113.1008 0 204.8-91.6992 204.8-204.77952 0-186.91072-370.3296-435.15904-370.3296-435.15904S141.68064 303.32928 141.68064 499.18976c0 140.78976 91.6992 204.77952 204.77952 204.77952 68.11648 0 128.28672-33.40288 165.5296-84.55168C549.24288 670.5664 609.41312 703.96928 677.51936 703.96928z"  horiz-adv-x="1024" />

    
    <glyph glyph-name="dianhua" unicode="&#59043;" d="M515.604-101.581c-269.053 0-487.942 218.891-487.942 487.942s218.891 487.956 487.942 487.956 487.942-218.891 487.942-487.942-218.891-487.956-487.942-487.956zM515.604 833.359c-246.47 0-446.982-200.527-446.982-446.982s200.527-446.982 446.982-446.982 446.982 200.527 446.982 446.982-200.513 446.982-446.982 446.982zM671.157 118.156c-172.769 0-429.534 274.050-429.534 417.997 0 57.549 77.019 118.429 118.429 118.429 43.787 0 118.415-126.279 118.415-152.986 0-18.814-8.124-32.126-14.637-42.831-5.066-8.301-8.055-13.489-8.383-19.47 6.718-21.012 85.333-99.396 107.534-107.287 5.899 0.518 13.366 4.41 21.259 8.519 12.37 6.445 27.771 14.473 46.586 14.473 30.078 0 158.748-83.927 158.748-118.429 0-65.604-64.771-118.415-118.415-118.415zM358.918 613.567c-19.129-1.679-76.336-43.663-76.336-77.414 0-123.262 240.026-377.037 388.574-377.037 32.809 0 74.861 35.348 77.346 73.878-14.527 20.508-98.796 78.698-118.21 81.073-8.26-0.028-17.012-4.588-27.13-9.858-11.892-6.198-25.355-13.216-41.478-13.216-35.772 0-147.237 111.452-147.237 147.223 0 18.268 7.973 31.348 14.39 41.861 5.284 8.684 8.383 14.063 8.629 20.617-4.602 20.876-58.272 104.448-78.547 112.873z"  horiz-adv-x="1024" />

    
    <glyph glyph-name="xiangshangjiantou" unicode="&#58927;" d="M771.512499 381.709841 511.614214 831.867354 251.715929 381.709841 414.441057 381.709841 414.441057-63.653483 608.786347-63.653483 608.786347 381.709841Z"  horiz-adv-x="1024" />

    
    <glyph glyph-name="xiangxiajiantou" unicode="&#58928;" d="M771.512499 386.50403 511.614214-63.653483 251.715929 386.50403 414.441057 386.50403 414.441057 831.867354 608.786347 831.867354 608.786347 386.50403Z"  horiz-adv-x="1024" />

    
    <glyph glyph-name="wendang" unicode="&#58954;" d="M320 32 320 896l480 0 0-192 0-32L1024 672l0-640L320 32zM928 576l-512 0 0-32 512 0L928 576zM928 448l-512 0 0-32 512 0L928 448zM928 320l-512 0 0-32 512 0L928 320zM928 192l-512 0 0-32 512 0L928 192zM832 896l19.2 0L1024 736 1024 704l-192 0L832 896zM288 0l320 0L704 0l0-128L0-128 0 736l288 0 0-320-192 0L96 384l192 0 0-96-192 0L96 256l192 0 0-96-192 0L96 128l192 0 0-96-192 0L96 0 288 0z"  horiz-adv-x="1024" />

    
    <glyph glyph-name="dingwei2" unicode="&#58932;" d="M506.397399 804.925748c40.774659 0 79.082126-7.737218 114.941845-23.186072 35.8413-15.459087 66.918086-36.347836 93.230358-62.649875 26.962072-26.977421 48.173163-58.207703 63.636343-93.726661 15.44476-35.518958 23.186072-73.671906 23.186072-114.446565 0-55.245232-15.46318-114.936729-46.37112-179.066305-30.92329-64.128553-64.793702-123.493615-101.623515-178.077791-36.843116-54.605665-85.834924-118.070092-147.002029-190.416817-61.170175 72.346725-110.173239 135.811152-147.006122 190.416817-36.843116 54.584176-70.709435 113.949238-101.617375 178.077791-30.92329 64.128553-46.372144 123.82005-46.372144 179.066305 0 40.774659 7.722892 78.927607 23.186072 114.446565 15.443737 35.518958 36.654828 66.74924 63.631226 93.726661 26.304086 26.303063 57.380872 47.191812 93.235474 62.649875C427.300946 797.18853 465.60432 804.925748 506.397399 804.925748L506.397399 804.925748zM506.397399 405.354354c14.462387 0 28.119431 2.788509 40.947598 8.385994 12.824073 5.584182 23.830755 12.978593 33.047674 22.198581 9.865695 9.865695 17.593703 21.212114 23.186072 34.040281 5.583159 12.82305 8.387018 26.466792 8.387018 40.942481 0 14.45727-2.803859 28.119431-8.387018 40.942481-5.592368 12.82919-13.320377 23.832801-23.186072 33.051767-9.215896 9.865695-20.222577 17.419741-33.047674 22.690792-12.828167 5.259794-26.485211 7.895831-40.947598 7.895831-14.470573 0-28.114314-2.636037-40.942481-7.895831-12.824073-5.27105-23.846104-12.824073-33.051767-22.690792-9.865695-9.219989-17.60189-20.227694-23.180955-33.051767-5.597485-12.828167-8.387018-26.485211-8.387018-40.942481 0-14.475689 2.789533-28.119431 8.387018-40.942481 5.579065-12.828167 13.31526-24.174586 23.180955-34.040281 9.205663-9.219989 20.227694-16.619516 33.051767-22.198581C478.277968 408.142863 491.926826 405.354354 506.397399 405.354354L506.397399 405.354354zM506.397399 405.354354"  horiz-adv-x="1024" />

    
    <glyph glyph-name="huangguan" unicode="&#58912;" d="M1016.604444 504.974222c0 41.870222-33.934222 75.832889-75.832889 75.832889s-75.832889-33.934222-75.832889-75.832889c0-16.071111 5.063111-30.919111 13.596444-43.178667-39.964444-22.471111-79.587556-54.385778-144.327111-54.385778-10.496 0-20.650667 0.853333-30.122667 2.56-101.859556 18.318222-156.273778 136.732444-161.735111 171.633778 25.258667 12.316444 42.808889 37.973333 42.808889 67.982222 0 41.870222-33.934222 75.832889-75.832889 75.832889s-75.832889-33.934222-75.832889-75.832889c0-32.540444 20.593778-60.046222 49.379556-70.826667-5.148444-38.855111-57.486222-160.768-156.558222-174.990222-8.021333-1.166222-16.497778-1.735111-25.173333-1.735111-64.227556 0-103.623111 30.890667-146.204444 54.584889 3.811556 9.045333 5.916444 18.972444 5.916444 29.383111 0 41.870222-33.934222 75.832889-75.832889 75.832889-20.536889 0-39.082667-8.248889-52.736-21.475556L31.004444 541.354667l0.625778-1.564444c-13.795556-13.710222-22.385778-32.739556-22.385778-53.76 0-41.841778 33.905778-75.776 75.747556-75.804444l196.209778-476.529778 462.933333 0 204.316444 496.241778C986.680889 433.834667 1016.604444 465.749333 1016.604444 504.974222zM706.048-9.415111 319.345778-9.415111 153.656889 392.931556c47.587556-23.580444 83.569778-47.786667 147.569778-47.786667 11.377778 0 22.584889 0.768 33.251556 2.304 83.598222 11.975111 156.615111 72.675556 180.280889 130.019556 25.031111-53.304889 98.56-108.970667 179.285333-123.505778 12.8-2.304 26.311111-3.470222 40.192-3.470222 60.472889 0 92.700444 21.930667 138.040889 43.719111L706.048-9.415111z"  horiz-adv-x="1026" />

    
    <glyph glyph-name="aixin" unicode="&#58882;" d="M512-23.194002l-64.352657 58.361199C219.085764 242.646622 68.191078 379.561921 68.191078 547.099658c0 136.915299 107.180068 244.094344 244.094344 244.094344 77.222779 0 151.3388-35.948747 199.713554-92.53451 48.374754 56.585763 122.490775 92.53451 199.713554 92.53451 136.915299 0 244.094344-107.180068 244.094344-244.094344 0-167.537737-150.894685-304.453037-379.456265-511.933485L512-23.194002z"  horiz-adv-x="1024" />

    
    <glyph glyph-name="youjian" unicode="&#58952;" d="M901.557832 700.089052 122.431935 700.089052c-33.127492 0-60.042491-26.900673-60.042491-60.065004l0-509.325078c0-33.221636 26.885324-60.065004 60.042491-60.065004l779.125897 0c33.135678 0 60.051701 26.901697 60.051701 60.065004L961.609533 640.024048C961.609533 673.24773 934.724209 700.089052 901.557832 700.089052zM796.517497 485.060697l-268.550339-155.051355c-4.15667-3.541663-9.485025-5.41636-14.886035-5.328355-5.399987-0.088004-10.726296 1.786693-14.883989 5.328355l-268.551362 155.051355c-10.765181 6.205329-14.497179 19.875676-8.246825 30.706349 6.212492 10.742668 19.897166 14.488992 30.727839 8.225335l260.954337-150.661372 260.956384 150.661372c10.829649 6.263657 24.514323 2.517333 30.720675-8.225335C811.021839 504.936373 807.275515 491.266026 796.517497 485.060697z"  horiz-adv-x="1024" />

    
    <glyph glyph-name="xiazai17" unicode="&#58897;" d="M963.80969 21.085491 746.640896 242.943386c-3.587891 3.66551-7.710925 6.443725-12.110336 8.352256 46.655488 62.60183 74.359501 140.751667 74.359501 225.526477 0 205.788877-163.237376 372.568371-364.609741 372.568371C242.909082 849.39049 79.67785 682.609971 79.67785 476.822016c0-205.792973 163.231232-372.569395 364.603597-372.569395 92.421632 0 176.807936 35.134157 241.069056 93.044122 1.778586-3.55799 4.115866-6.89705 7.027302-9.871872l217.115546-221.85687c14.970573-15.300506 39.292518-15.300506 54.316237 0C978.780262-19.131494 978.780262 5.78601 963.80969 21.085491zM444.281446 163.049779c-169.564672 0-307.06176 140.4928-307.06176 313.772237 0 173.332685 137.496064 313.766195 307.06176 313.766195 169.570816 0 307.06176-140.433408 307.06176-313.766195C751.343206 303.542579 613.851238 163.049779 444.281446 163.049779z"  horiz-adv-x="1024" />

    
    <glyph glyph-name="shanchu" unicode="&#59014;" d="M960.064 768 800 768c0 70.688-25.312 128-96 128L320 896C249.312 896 224 838.688 224 768L63.936 768C46.304 768 32 753.792 32 736c0-17.664 14.208-32 32-32 17.664 0 32-14.304 32-32.032L96-64c0-35.36 28.704-64 64.192-64l703.616 0C899.264-128 928-99.52 928-64L928 671.968C928 689.664 942.208 704 960 704c17.664 0 32 14.208 32 32C992 753.664 977.696 768 960.064 768zM320 832l384 0c35.328 0 32-28.64 32-64L288 768C288 803.36 284.672 832 320 832zM864-31.744C864-49.568 849.408-64 832.16-64L191.84-64C174.272-64 160-49.632 160-31.744L160 671.904C160 689.952 174.368 704 192.096 704l639.84 0C849.952 704 864 689.632 864 671.904L864-31.744zM320 576c-17.664 0-32-14.592-32-31.84l0-448.288C288 78.272 302.208 64 320 64c17.664 0 32 14.592 32 31.84L352 544.16C352 561.728 337.792 576 320 576zM512 576c-17.664 0-32-14.592-32-31.84l0-448.288C480 78.272 494.208 64 512 64c17.664 0 32 14.592 32 31.84L544 544.16C544 561.728 529.792 576 512 576zM704 576c-17.664 0-32-14.592-32-31.84l0-448.288C672 78.272 686.208 64 704 64c17.664 0 32 14.592 32 31.84L736 544.16C736 561.728 721.792 576 704 576z"  horiz-adv-x="1024" />

    
    <glyph glyph-name="xiangshang" unicode="&#59057;" d="M944.43385 100.195236 535.669072 505.220852c-0.592494 0.592494-1.407046 0.779759-2.033309 1.333368-0.147356 0.146333-0.186242 0.37146-0.333598 0.518816-14.543228 14.358009-37.97694 14.284331-52.373835-0.225127L75.942623 98.122017c-14.396895-14.544251-14.290471-37.938054 0.220011-52.341089 7.218402-7.139607 16.657378-10.731412 26.061562-10.731412 9.511631 0 19.061125 3.665483 26.279526 10.957563l379.226021 382.66433 384.590192-381.037273c7.218402-7.144724 16.616446-10.737552 26.055422-10.737552 9.550517 0 19.061125 3.665483 26.285666 10.957563C959.057919 62.362582 958.943308 85.798341 944.43385 100.195236L944.43385 100.195236zM944.43385 100.195236"  horiz-adv-x="1024" />

    
    <glyph glyph-name="cpuchuliqiyingjian" unicode="&#59037;" d="M586.752 570.197333c-80.213333 0-160.426667 0-160.597333 0-0.170667-0.170667-103.936-1.536-105.813333-105.984l0-160.597333c0.170667-0.170667 1.536-103.936 105.813333-105.813333 80.213333 0 160.597333 0 160.597333 0 0.170667 0.170667 103.936 1.536 105.813333 105.813333 0 80.213333 0 160.426667 0 160.597333C692.565333 464.384 691.2 568.32 586.752 570.197333zM641.536 414.037333c0-30.208 0-70.314667 0-110.421333-0.170667-56.149333-54.613333-53.248-54.784-54.613333 0 0-80.213333 0-160.597333 0-56.32 0-53.248 54.613333-54.784 54.613333L371.370667 464.213333c0 56.32 54.613333 53.248 54.784 54.784 0 0 80.213333 0 160.597333 0 56.149333 0 53.248-54.613333 54.784-54.784C641.536 464.213333 641.536 444.245333 641.536 414.037333zM896.512 363.861333c14.165333 0 25.6 11.434667 25.6 25.6 0 14.165333-11.434667 25.6-25.6 25.6l-84.650667 0c0 17.749333 0 33.792 0 47.616l84.650667 0c14.165333 0 25.6 11.434667 25.6 25.6s-11.434667 25.6-25.6 25.6l-84.650667 0c0 1.024 0 1.706667 0 1.706667-0.170667 0.170667-1.536 160.768-162.816 162.816-5.973333 0-12.117333 0-18.090667 0L630.954667 768.512c0 14.165333-11.434667 25.6-25.6 25.6-14.165333 0-25.6-11.434667-25.6-25.6l0-90.282667c-16.384 0-32.256 0-47.616 0L532.138667 768.512c0 14.165333-11.434667 25.6-25.6 25.6s-25.6-11.434667-25.6-25.6l0-90.282667c-17.749333 0-33.621333 0-47.616 0L433.322667 768.512c0 14.165333-11.434667 25.6-25.6 25.6-14.165333 0-25.6-11.434667-25.6-25.6l0-90.282667c-4.437333 0-7.168 0-7.168 0-0.170667-0.170667-160.768-1.536-162.645333-162.816l0-1.706667L127.488 513.706667c-14.165333 0-25.6-11.434667-25.6-25.6s11.434667-25.6 25.6-25.6l84.650667 0 0-47.616L127.488 414.890667c-14.165333 0-25.6-11.434667-25.6-25.6 0-14.165333 11.434667-25.6 25.6-25.6l84.650667 0 0-47.616L127.488 316.074667c-14.165333 0-25.6-11.434667-25.6-25.6s11.434667-25.6 25.6-25.6l84.650667 0 0-23.722667c0.170667-0.170667 1.536-160.768 162.645333-162.816 2.389333 0 4.778667 0 7.168 0l0-79.189333c0-14.165333 11.434667-25.6 25.6-25.6 14.165333 0 25.6 11.434667 25.6 25.6l0 79.189333c16.213333 0 32.256 0 47.616 0l0-79.189333c0-14.165333 11.434667-25.6 25.6-25.6s25.6 11.434667 25.6 25.6l0 79.189333c17.237333 0 33.450667 0 47.616 0l0-79.189333c0-14.165333 11.434667-25.6 25.6-25.6 14.165333 0 25.6 11.434667 25.6 25.6l0 79.189333c11.434667 0 18.090667 0 18.090667 0 0.170667 0.170667 160.768 1.536 162.816 162.816 0 7.850667 0 15.701333 0 23.722667l84.650667 0c14.165333 0 25.6 11.434667 25.6 25.6s-11.434667 25.6-25.6 25.6l-84.650667 0c0 16.384 0 32.426667 0 47.616L896.512 363.690667zM760.661333 241.322667c-0.170667-112.981333-111.445333-110.08-111.616-111.616 0 0-137.216 0-274.261333 0-112.981333 0.170667-110.08 111.445333-111.616 111.616L263.168 515.584c0.170667 112.981333 111.445333 110.08 111.616 111.616 0 0 137.216 0 274.261333 0 112.981333-0.170667 110.08-111.445333 111.616-111.616C760.661333 515.584 760.661333 309.930667 760.661333 241.322667z"  horiz-adv-x="1024" />

    
    <glyph glyph-name="qianbao1" unicode="&#58943;" d="M294.618612 805.573548c9.001329-6.74492 18.184296-14.414661 27.556576-23.02969 9.379955-8.615027 17.813344-18.541177 25.316797-29.775889 3.747888-5.988947 8.244076-12.726193 13.498796-20.213016 5.247044-7.494499 10.121859-14.982601 14.627-22.469425 5.247044-8.236401 10.49281-16.851429 15.747528-25.838687l232.857738 0c5.239369 7.494499 10.114183 15.352273 14.627 23.589954 3.740214 6.74492 7.873125 13.483445 12.355242 20.221971 4.511537 6.738525 8.630378 12.733868 12.385941 17.971958 7.494499 10.485134 14.990276 20.411283 22.500124 29.768214 7.494499 9.364606 18.381284 18.539898 32.614307 27.527156 5.996622 3.747888 11.054354 8.615027 15.185985 14.603975 4.13419 5.988947 6.752595 11.98429 7.874404 17.971958 1.1346 5.996622 0.377347 11.794977-2.256408 17.412972-2.620964 5.617996-7.677416 9.92487-15.171914 12.923181-6.752595 2.241058-12.566301 2.998311-17.443672 2.241058-4.874814-0.741903-9.750906-2.05942-14.62572-3.929527-4.876093-1.877781-9.933824-3.929527-15.171914-6.17826-5.26879-2.248733-11.628689-3.376937-19.138537-3.376937-7.494499 0-13.686829 1.317518-18.564202 3.937202-4.874814 2.62736-9.355651 5.807309-13.491121 9.546243-4.131632 3.747888-8.433389 7.676137-12.944926 11.802652-4.482117 4.117561-10.49281 7.297511-17.987308 9.546243-14.990276 5.988947-26.996312 7.115872-36.005316 3.369262-8.993654-3.740214-17.987308-9.743232-26.982241-17.971958-7.509848-7.488103-13.50647-12.733868-18.002658-15.732179-2.256408-1.491481-4.126515-2.241058-5.624392-2.241058-4.503862 2.241058-8.630378 4.868418-12.378266 7.859054-3.747888 2.248733-7.31286 4.68678-10.682122 7.305185-3.376937 2.619685-6.563283 5.798355-9.561594 9.553919-6.003018 5.979993-15.004347 9.917195-26.996312 11.787303-12.007315 1.870107-22.87875-0.181638-32.621982-6.17826-12.749217-8.236401-21.750546-15.162961-27.003987-20.780956-5.247044-5.617996-13.12017-9.546243-23.620653-11.802652-5.996622-1.491481-12.559905-1.112854-19.683451 1.128204-7.123547 2.248733-14.437686 4.497467-21.93986 6.738525-7.494499 2.248733-14.619324 3.747888-21.37192 4.497467-6.74492 0.749577-12.741543-0.749577-17.994983-4.497467-10.49281-8.236401-13.877422-18.154876-10.129533-29.768214C278.121506 821.487366 284.867705 812.312073 294.618612 805.573548zM903.760549 270.291883c-5.633345 37.065725-15.565891 69.832251-29.814263 98.297018-14.248373 28.443022-30.933514 53.350493-50.07333 74.692994-19.107837 21.3425-37.67076 39.882397-55.673417 55.606902-21.742872 17.971958-40.866059 35.013979-57.37084 51.11711-16.503502 16.101851-30.373249 30.516513-41.607962 43.250381-13.50647 14.225349-24.756532 27.337843-33.764257 39.314458L382.361422 632.570745c-9.743232-12.726193-21.000969-26.209639-33.742512-40.442662-10.508159-12.733868-23.628329-26.769903-39.374578-42.123456-15.747528-15.353553-33.37156-31.637042-52.873374-48.868377-22.49245-19.472393-43.304105-41.563192-62.427292-66.273675-19.123186-24.718158-35.060028-51.865409-47.807968-81.44431-12.749217-29.586577-21.561234-61.231294-26.436047-94.935431-4.876093-33.705416-3.937202-68.89336 2.816672-105.595808 5.988947-32.948163 18.365935-66.092037 37.119449-99.417547 18.74456-33.32679 44.053683-63.472352 75.926087-90.423893 31.872405-26.982241 70.679043-48.876052 116.42887-65.72876 45.742152-16.851429 98.244573-25.270748 157.484241-25.270748 57.755862 0 109.297648 7.297511 154.675243 21.893811 45.380154 14.611649 84.550069 34.28103 117.543003 58.990234 33.008284 24.710483 59.444331 53.721446 79.310699 87.062306 19.87916 33.325511 33.188643 68.711721 39.942518 106.154793C908.438374 191.829255 909.375986 233.212087 903.760549 270.291883zM643.90394 90.535205c-4.874814-3.361588-11.053075-5.056452-18.562923-5.056452l-78.735085 0 0-22.469425c0-6.723175-2.815393-13.278782-8.448739-19.654032-5.630788-6.35862-12.929577-9.175292-21.932185-8.418039-9.001329 0-16.503502 2.05942-22.500124 6.176981-6.003018 4.12012-9.37228 11.41763-10.121859 21.89509l0 22.469425L407.110279 85.478753c-7.502173 0-13.688109 2.058141-18.562923 6.176981-4.868418 4.118841-6.934234 9.175292-6.184656 15.170635 0 6.738525 2.438046 12.174882 7.305185 16.291165 4.882488 4.12012 10.697473 6.17826 17.442393 6.17826l76.494027 0L483.604306 168.602578 407.110279 168.602578c-7.502173 0-13.50647 2.256408-18.002658 6.752595s-6.74492 9.735557-6.74492 15.732179c0 5.981273 2.438046 11.614618 7.305185 16.852709 4.882488 5.239369 10.697473 7.859054 17.442393 7.859054l76.494027 0 1.12053 23.589954c-13.498796 13.491121-25.869387 26.20836-37.119449 38.200325-9.750906 10.47746-18.752235 20.214295-26.996312 29.1926l-16.874454 15.732179c-3.747888 4.497467-7.123547 10.675727-10.129533 18.547572-2.998311 7.859054-1.491481 15.913817 4.503862 24.151498 6.74492 7.494499 14.997951 9.538569 24.748857 6.161632 9.743232-3.361588 17.624031-7.660787 23.620653-12.900156 3.005986-3.755564 8.251751-9.35821 15.753924-16.869337l23.620653-23.574604 30.373249-30.34255c12.756893 11.975336 24.370231 22.846772 34.863041 32.583608 9.009004 8.236401 18.002658 16.291165 27.011661 24.150218 8.993654 7.873125 15.368902 13.295412 19.107837 16.292444 6.752595 5.996622 14.262444 8.979583 22.500124 8.979583 8.267101 0 15.004347-3.378217 20.259065-10.100112 9.750906-11.234712 5.996622-24.345927-11.250062-39.320854-4.497467-3.740214-11.250062-10.295822-20.243716-19.669381-9.009004-9.355651-18.018007-18.532223-27.011661-27.511806-10.49281-11.234712-22.121498-22.846772-34.855366-34.824667l0-21.348895 73.101739 0c10.508159 0 18.199646-2.436767 23.075739-7.29879 4.874814-4.874814 7.297511-10.295822 7.297511-16.291165 0-6.738525-2.241058-12.55095-6.752595-17.411693-4.482117-4.860743-11.991965-6.918884-22.484774-6.176981l-73.11709-1.137158-1.12053-38.186254 71.981211 0c21.000969 0 31.493778-7.859054 31.493778-23.589954C650.839453 99.345941 648.781313 93.910863 643.90394 90.535205z"  horiz-adv-x="1024" />

    
    <glyph glyph-name="yinxingqia3" unicode="&#58967;" d="M917.376 0 106.624 0C47.744 0 0 50.56 0 113.024L0 655.04C0 717.44 47.744 768 106.624 768l810.752 0C976.256 768 1024 717.44 1024 655.04l0-67.712L1024 451.84l0-338.816C1024 50.56 976.256 0 917.376 0L917.376 0zM981.376 623.104c0 55.104-42.112 99.712-93.952 99.712L136.576 722.816c-51.84 0-93.888-44.608-93.888-99.712l0-35.84 938.688 0L981.376 623.104 981.376 623.104zM42.688 451.84l0-306.944c0-55.04 42.048-99.712 93.888-99.712l750.848 0c51.84 0 93.952 44.608 93.952 99.712L981.376 451.84 42.688 451.84 42.688 451.84zM661.312 113.024l64 135.488 213.376 0-64-135.488L661.312 113.024 661.312 113.024z"  horiz-adv-x="1024" />

    
    <glyph glyph-name="anquan1" unicode="&#59011;" d="M957.217391 809.627826C957.217391 809.627826 957.217391 287.788522 957.217391 287.788522 957.217391 256.489739 949.782261 225.369043 934.956522 194.426435 920.086261 163.394783 900.674783 133.431652 876.633043 104.314435 852.591304 75.241739 825.121391 47.682783 794.267826 21.726609 763.369739-4.274087 732.070957-27.425391 700.326957-47.727304 668.538435-68.073739 637.68487-84.992 607.721739-98.437565 577.758609-111.88313 551.490783-121.09913 528.918261-126.130087 528.918261-126.130087 518.233043-128 518.233043-128 518.233043-128 508.438261-126.130087 508.438261-126.130087 485.286957-121.09913 458.440348-111.88313 427.853913-98.437565 397.267478-84.992 365.523478-68.073739 332.577391-47.727304 299.631304-27.425391 267.308522-4.274087 235.52 21.726609 203.776 47.682783 175.415652 75.241739 150.483478 104.314435 125.551304 133.431652 105.382957 163.394783 89.978435 194.426435 74.48487 225.369043 66.782609 256.489739 66.782609 287.788522 66.782609 287.788522 66.782609 809.627826 66.782609 809.627826 66.782609 809.627826 103.290435 815.282087 103.290435 815.282087 103.290435 815.282087 512.890435 896 512.890435 896 512.890435 896 930.504348 815.282087 930.504348 815.282087 930.504348 815.282087 957.217391 809.627826 957.217391 809.627826 957.217391 809.627826 957.217391 809.627826 957.217391 809.627826ZM513.024 820.446609C513.024 820.446609 508.082087 821.470609 508.082087 821.470609 508.082087 821.470609 156.538435 758.472348 156.538435 758.472348 156.538435 758.472348 156.538435 429.234087 156.538435 429.234087 156.538435 429.234087 513.024 429.234087 513.024 429.234087 513.024 429.234087 513.024 820.446609 513.024 820.446609 513.024 820.446609 513.024 820.446609 513.024 820.446609ZM867.461565 429.234087C867.461565 429.234087 513.024 429.234087 513.024 429.234087 513.024 429.234087 513.024-39.401739 513.024-39.401739 535.81913-33.881043 560.617739-25.466435 587.419826-14.113391 614.177391-2.760348 640.623304 10.640696 666.713043 26.134261 692.847304 41.627826 717.957565 58.813217 742.13287 77.734957 766.308174 96.656696 787.634087 117.00313 806.288696 138.685217 824.898783 160.322783 839.724522 182.850783 850.810435 206.269217 861.94087 229.64313 867.461565 253.417739 867.461565 277.504 867.461565 277.504 867.461565 429.234087 867.461565 429.234087 867.461565 429.234087 867.461565 429.234087 867.461565 429.234087Z"  horiz-adv-x="1024" />

    
    <glyph glyph-name="dunpai" unicode="&#58949;" d="M859.553531 672.53265c-131.266167 0.273397-251.874989 45.271187-347.712244 120.449085-95.882309-75.019185-216.28634-120.176713-347.417344-120.449085-87.404969-286.237962 63.019433-593.928847 347.531004-697.515408C796.534098 78.603803 946.982051 386.294688 859.553531 672.53265zM201.448179 381.817948l310.551821 0L512 735.019625c92.522706-64.419182 199.064407-101.307233 311.691485-107.939403 19.76237-82.987619 18.331902-166.81181-1.178574-245.262275L512 381.817948 512 24.873707c-0.015359-0.006144-0.029695-0.012287-0.045054-0.018431C352.376368 88.859756 240.559241 224.535082 201.448179 381.817948z"  horiz-adv-x="1024" />

    
    <glyph glyph-name="shouye2" unicode="&#59009;" d="M405.923568 794.277224C279.295566 689.174468 205.614449 619.540528 95.310228 498.647133c-27.430746-35.963073-22.976294-102.870926 0-102.870926 71.362304 0 102.870926 0 102.870926 0s0-128.160915 0-257.177314c0-37.830607 5.390777-102.869902 45.196365-102.869902 65.173348 0 160.544463 0 160.544463 0L403.921981 292.911422l205.741851 0 0-257.18243c0 0 83.145675 0 148.308791 0 29.956266 0 57.43306 27.219945 57.43306 102.869902 0 132.344191 0 257.177314 0 257.177314s40.329521 0 102.869902 0c30.588669 0 35.552727 72.79084 0 102.870926C817.308009 601.34205 703.651436 700.659033 593.641927 790.882917 506.79393 858.694349 459.622584 849.703581 405.923568 794.277224z"  horiz-adv-x="1024" />

    
    <glyph glyph-name="combinedshapecopy2" unicode="&#58964;" d="M0-60.865864 1146.877993-60.865864 1146.877993-124.7232 0-124.7232 0-60.865864ZM0-16.775537 300.529213 68.547994 85.868257 281.896387 0-16.775537ZM802.673951 567.629578 588.010209 780.980716 115.744481 311.621509 330.405437 98.291139 802.673951 567.629578ZM902.442885 746.845225 768.272343 880.181371C746.042941 902.277693 708.804076 901.074616 685.091594 877.515981L620.682076 813.523681 835.34721 600.173896 899.75255 664.185651C923.465032 687.745638 924.668109 724.746117 902.442885 746.845225Z"  horiz-adv-x="1147" />

    
    <glyph glyph-name="yonghu" unicode="&#58938;" d="M501.041414 833.068715c125.654838 0 227.51269-100.19498 227.51269-223.775576 0-123.605156-101.856829-223.805252-227.51269-223.805252-125.650745 0-227.506551 100.199073-227.506551 223.805252C273.53384 732.902388 375.424438 833.068715 501.041414 833.068715L501.041414 833.068715 501.041414 833.068715zM501.041414 833.068715c125.654838 0 227.51269-100.19498 227.51269-223.775576 0-123.605156-101.856829-223.805252-227.51269-223.805252-125.650745 0-227.506551 100.199073-227.506551 223.805252C273.53384 732.902388 375.424438 833.068715 501.041414 833.068715L501.041414 833.068715 501.041414 833.068715zM415.730423 310.874539l189.629895 0c162.314783 0 293.880237-129.387859 293.880237-289.057395l0-18.622126c0-62.922075-131.593084-65.313541-293.880237-65.313541L415.730423-62.118524c-162.319899 0-293.880237 0.092098-293.880237 65.313541l0 18.622126C121.852232 181.48668 253.411547 310.874539 415.730423 310.874539L415.730423 310.874539 415.730423 310.874539z"  horiz-adv-x="1024" />

    
    <glyph glyph-name="weibiaoti525" unicode="&#58909;" d="M586.501296 380.075621a118.776 46.561 0 1 0 243.088434 0 118.776 46.561 0 1 0-243.088434 0ZM802.689057 249.621477 613.404016 249.621477 677.750533 380.075621 738.036571 380.075621ZM882.331955 158.276049c0-15.954367-13.053294-29.007661-29.007661-29.007661l-290.556539 0c-15.953344 0-29.007661 13.053294-29.007661 29.007661l0 68.207451c0 15.954367 13.053294 29.007661 29.007661 29.007661l290.556539 0c15.953344 0 29.007661-13.053294 29.007661-29.007661L882.331955 158.276049zM493.657748 132.683161l-253.541507 0 0 508.541225 508.540202 0 0-151.267169 97.235578 0 0 172.321694c0 42.005696-34.174334 76.18003-76.181053 76.18003l-550.650275 0c-42.006719 0-76.18003-34.174334-76.18003-76.18003l0-550.650275c0-42.005696 34.174334-76.18003 76.18003-76.18003l274.596032 0L493.656725 132.683161zM673.531442 515.705648c0-15.954367-13.053294-29.007661-29.007661-29.007661l-306.663378 0c-15.953344 0-29.007661 13.053294-29.007661 29.007661l0 7.956206c0 15.954367 13.053294 29.007661 29.007661 29.007661l306.663378 0c15.953344 0 29.007661-13.053294 29.007661-29.007661L673.531442 515.705648zM499.744373 328.479499c0-15.954367-13.053294-29.007661-29.007661-29.007661l-132.87631 0c-15.953344 0-29.007661 13.053294-29.007661 29.007661l0 7.957229c0 15.954367 13.053294 29.007661 29.007661 29.007661l132.87631 0c15.953344 0 29.007661-13.053294 29.007661-29.007661L499.744373 328.479499z"  horiz-adv-x="1024" />

    
    <glyph glyph-name="tupian" unicode="&#59025;" d="M165.789 796.833h783c22.5 0 40.5-18 40.5-40.5v-319.5c-40.5 31.5-117 81-175.5 81-85.5 0-162-198-256.5-198-72 4.5-171 85.5-283.5 72-45-9-108-81-148.5-135v499.5c0 22.5 18 40.5 40.5 40.5zM354.788 472.833c-36 0-67.5 13.5-90 36s-36 58.5-36 90c0 31.5 13.5 67.5 36 90 22.5 22.5 54 36 90 36 31.5 0 63-13.5 90-36 22.5-22.5 36-58.5 36-90 0-31.5-13.5-67.5-36-90-27-22.5-58.5-36-90-36zM971.288 855.333h-828c-45 0-81-36-81-81v-738c0-45 36-81 81-81h828c45 0 81 36 81 81v738c0 45-36 81-81 81z"  horiz-adv-x="1128" />

    
    <glyph glyph-name="dianpu" unicode="&#58939;" d="M64.091714 460.859505c0-46.972824 35.657104-86.11531 83.746356-97.414657l0-331.668888-55.830563 0c-15.379269 0-27.915793-11.30037-27.915793-25.251104 0-13.950733 12.535501-25.235754 27.915793-25.235754l837.470723 0c15.483646 0 27.915793 11.30037 27.915793 25.235754s-12.432147 25.235754-27.915793 25.235754l-55.831586 0L873.646644 363.444848c48.090275 11.299347 83.747379 50.441832 83.747379 97.414657l0 25.234731L64.091714 486.094236 64.091714 460.859505 64.091714 460.859505zM622.405529 359.901139c61.72583 0 111.662149 45.200458 111.662149 100.958366 0-46.972824 35.658128-86.11531 83.747379-97.414657l0-331.668888L399.079184 31.77596 399.079184 359.901139c61.727876 0 111.663172 45.200458 111.663172 100.958366C510.742357 405.101597 560.78203 359.901139 622.405529 359.901139L622.405529 359.901139zM371.164415 363.444848l0-331.668888L203.670679 31.77596 203.670679 363.444848c48.088228 11.299347 83.746356 50.441832 83.746356 97.414657C287.417035 413.886681 323.07414 374.744195 371.164415 363.444848L371.164415 363.444848zM845.73085 713.261049 175.754886 713.261049 64.091714 511.34534l893.301286 0L845.73085 713.261049 845.73085 713.261049zM175.754886 763.747907c0 13.94971 12.535501 25.235754 27.915793 25.235754l614.144378 0c15.483646 0 27.915793-11.286044 27.915793-25.235754 0-13.950733-12.432147-25.235754-27.915793-25.235754L203.670679 738.512153C188.290387 738.497826 175.754886 749.797174 175.754886 763.747907L175.754886 763.747907z"  horiz-adv-x="1024" />

    
    <glyph glyph-name="aixin1" unicode="&#58881;" d="M707.392 802.645c-77.264 0-149.104-38.759-196.389-102.673-47.258 63.929-119.083 102.673-196.389 102.673-139.281 0-252.596-123.888-252.596-276.181 0-90.853 40.585-154.588 73.209-205.797 94.816-148.743 333.217-333.849 343.314-341.653 9.727-7.52 21.1-11.282 32.447-11.282 11.373 0 22.73 3.761 32.447 11.282 10.11 7.804 248.524 192.91 343.313 341.653 32.64 51.209 73.238 114.944 73.238 205.797-0.001 152.292-113.316 276.181-252.596 276.181zM840.628 355.818c-90.254-141.629-329.64-326.614-329.64-326.614s-239.359 184.986-329.641 326.614c-33.296 52.287-63.11 101.983-63.11 170.647 0 118.568 87.912 214.725 196.376 214.725 80.155 0 148.967-52.588 179.494-127.875l0 0.375 0.082 0c2.274-7.851 8.905-13.575 16.798-13.575 7.921 0 14.552 5.723 16.812 13.575l0.232 0c30.597 75.062 99.313 127.499 179.359 127.499 108.438 0 196.376-96.157 196.376-214.725 0-68.663-29.816-118.359-63.14-170.647z"  horiz-adv-x="1024" />

    
    <glyph glyph-name="iconfontzhizuobiaozhun023126" unicode="&#59008;" d="M212.3652 384.008186 212.25366 384.12075 723.283566 895.156796 811.754526 806.686858 389.068691 384.001023 811.75555-38.685835 723.283566-127.154749 212.24445 383.88846Z"  horiz-adv-x="1024" />

    
    <glyph glyph-name="iconfontzhizuobiaozhun023127" unicode="&#59010;" d="M811.6348 383.99386 811.74634 383.881296 300.716434-127.154749 212.24445-38.685835 634.932332 384 212.24445 806.686858 300.716434 895.156796 811.756573 384.113587Z"  horiz-adv-x="1024" />

    
    <glyph glyph-name="gouwuche2" unicode="&#58925;" d="M831.398957 107.186087c-47.037217 0-85.170087-38.13287-85.170087-85.170087 0-47.037217 38.13287-85.170087 85.170087-85.170087s85.170087 38.13287 85.170087 85.170087C916.569043 69.053217 878.436174 107.186087 831.398957 107.186087zM831.398957-20.569043c-23.529739 0-42.585043 19.055304-42.585043 42.585043s19.055304 42.585043 42.585043 42.585043 42.585043-19.055304 42.585043-42.585043S854.906435-20.569043 831.398957-20.569043zM384.24487 107.186087c-47.037217 0-85.170087-38.13287-85.170087-85.170087 0-47.037217 38.13287-85.170087 85.170087-85.170087 47.037217 0 85.170087 38.13287 85.170087 85.170087C469.414957 69.053217 431.282087 107.186087 384.24487 107.186087zM384.24487-20.569043c-23.529739 0-42.585043 19.055304-42.585043 42.585043s19.055304 42.585043 42.585043 42.585043 42.585043-19.055304 42.585043-42.585043S407.752348-20.569043 384.24487-20.569043zM953.165913 338.721391c0 0 48.573217 278.238609 48.573217 279.507478 0 47.037217-38.13287 85.170087-85.170087 85.170087L201.371826 703.398957 188.638609 770.31513C178.109217 805.420522 145.942261 831.154087 107.430957 831.154087l-63.888696 0C31.788522 831.154087 22.26087 821.626435 22.26087 809.872696c0-11.776 9.527652-21.303652 21.303652-21.303652l63.888696 0c20.413217 0 37.420522-14.380522 41.583304-33.52487l93.718261-531.545043c0.400696-3.027478 2.470957-11.820522 2.470957-11.820522 9.616696-33.636174 39.134609-59.169391 75.152696-61.885217l596.190609 0c11.753739 0 21.303652 9.527652 21.303652 21.281391 0 11.776-9.549913 21.303652-21.303652 21.303652L326.745043 192.378435c-19.366957 0-35.528348 13.022609-40.71513 30.72l-9.594435 54.450087 595.411478 0C910.491826 277.548522 942.770087 303.437913 953.165913 338.721391zM268.933565 320.133565 208.873739 660.813913l707.695304 0c23.529739 0 42.585043-19.055304 42.585043-42.585043 0-7.791304-46.83687-268.087652-46.83687-268.087652-5.409391-17.341217-21.348174-29.985391-40.470261-29.985391L268.933565 320.155826z"  horiz-adv-x="1024" />

    
    <glyph glyph-name="iconfontxingxing" unicode="&#59056;" d="M942.689255 484.770163c-4.743556 14.595558-17.39304 25.298967-32.596745 27.4883l-250.070555 36.367265-111.899275 226.596033c-6.81126 13.74415-20.79867 22.501485-36.124005 22.501485-15.325336 0-29.312745-8.757335-36.124005-22.501485l-111.899275-226.596033-250.070555-36.367265c-15.203706-2.189334-27.853189-12.771113-32.596745-27.4883-4.743556-14.595558-0.729778-30.650671 10.21689-41.35408l180.984915-176.362988L229.939522 17.955577c-2.554223-15.082076 3.648889-30.407412 16.055113-39.408006 12.406224-9.000594 28.826226-10.21689 42.448747-3.040741l223.676921 117.615869 223.676921-117.615869c5.838223-3.040741 12.284594-4.621927 18.730966-4.621927 8.392446 0 16.663262 2.554223 23.717781 7.662668 12.406224 9.000594 18.609336 24.325929 16.055113 39.408006l-42.692006 249.097518 180.984915 176.362988C943.419033 454.119492 947.432811 470.174605 942.689255 484.770163L942.689255 484.770163z"  horiz-adv-x="1024" />

    
    <glyph glyph-name="neicun" unicode="&#58930;" d="M863.438 615.875h-704c-17.673 0-32-14.327-32-32v-447.059c0-17.673 14.327-32 32-32h127.809c17.673 0 32 14.327 32 32V163.64h42.718v-56.375h64V163.64h51.947v-56.375h64V163.64h51.947v-56.375h64V163.64h45.608v-26.823c0-17.673 14.327-32 32-32h127.971c17.673 0 32 14.327 32 32V583.875c0 17.673-14.328 32-32 32z m-32-295.333h-33.559c-17.673 0-32-14.327-32-32s14.327-32 32-32h33.559v-87.726h-63.971V195.64c0 17.673-14.327 32-32 32H287.246c-17.673 0-32-14.327-32-32v-26.823h-63.809v87.726h32.559c17.673 0 32 14.327 32 32s-14.327 32-32 32h-32.559V551.875h640v-231.333zM256.477 500.443h80.279v-140h-80.279zM400.89 500.443h80.279v-140H400.89zM545.302 500.443h80.279v-140h-80.279zM689.715 500.443h80.279v-140h-80.279z"  horiz-adv-x="1024" />

    
    <glyph glyph-name="iconfontzhizuobiaozhun0299" unicode="&#59128;" d="M1010.08251 811.155552c-0.77976 1.97396-1.606592 3.924383-2.47845 5.850247-0.871858 1.925864-1.790788 3.827169-2.751673 5.701868s-1.966796 3.723815-3.015686 5.544279c-0.523933 0.910743-1.059123 1.814324-1.602499 2.710741-22.908779 37.659752-64.340442 62.864833-111.55072 62.864833l0 0L130.485485 893.827519l-0.001023 0c-47.209255 0-88.641941-25.20508-111.548674-62.864833-0.545423-0.896417-1.080612-1.799997-1.604546-2.710741-1.04889-1.821487-2.054801-3.66958-3.015686-5.544279-9.136087-17.811685-14.294579-37.986187-14.294579-59.342609l0-676.611758 0-83.649225c0-71.939521 58.52601-130.465531 130.464508-130.465531l94.617032 0c0.473791-0.029676 0.949629-0.050142 1.430583-0.050142 0.481978 0 0.957816 0.020466 1.430583 0.050142l563.238528 0c0.473791-0.029676 0.949629-0.050142 1.430583-0.050142s0.957816 0.020466 1.430583 0.050142l94.618056 0c71.937474 0 130.463484 58.52601 130.463484 130.465531l0 83.649225L1019.144919 763.365058C1019.146966 780.225068 1015.932758 796.348296 1010.08251 811.155552zM888.683481-82.336962l-94.760295 0L225.243734-82.336962l-94.759272 0c-47.111018 0-85.43899 38.327972-85.43899 85.440013l0 82.230922c0.028653 0.469698 0.049119 0.941443 0.049119 1.418304 0 0.477884-0.019443 0.953722-0.049119 1.425467L45.045472 763.365058c0 14.722321 3.743258 28.586087 10.327216 40.691812 14.485937 26.630547 42.723076 44.747178 75.111773 44.747178l758.197996 0c32.387674 0 60.624813-18.115608 75.11075-44.747178 0.660033-1.210572 1.289367-2.438541 1.889025-3.683906 1.201363-2.489706 2.286068-5.045928 3.245931-7.661501 3.359518-9.15553 5.192261-19.040677 5.192261-29.346404l0-675.187314c-0.029676-0.471745-0.048095-0.947582-0.048095-1.425467 0-0.476861 0.020466-0.948606 0.048095-1.418304l0-82.230922C974.121448-44.00899 935.793476-82.336962 888.683481-82.336962zM252.197646 376.576418c0 35.942643 0.781807 57.820951 3.12518 96.106968-25.003489-44.5374-42.193003-69.540889-79.698236-114.078289-12.502768 24.222705-15.626925 28.910476-32.036679 46.101014 58.602758 59.382518 107.827928 135.175814 143.770571 220.343627 17.971321 42.97481 31.253849 85.168837 35.161859 110.953109l53.132158-20.315718c-25.784272-71.885286-48.44541-124.23666-74.229683-171.89924l0-420.37256c0-35.160836 1.56259-64.853118 5.469577-91.419197l-60.164325 0c3.905964 28.910476 5.469577 51.570591 5.469577 93.763594L252.197646 376.576418zM641.316357 332.820824l131.26678 0c29.692282 0 49.226194 1.56259 69.542935 4.68777l0-53.913964c-21.879332 3.12518-41.414267 4.68777-69.542935 4.68777L641.316357 288.282401l0-164.08629c43.75457-9.376564 82.82444-13.282528 139.081778-13.282528 33.597223 0 57.039144 0.781807 100.013955 3.905964-9.377587-21.878308-12.501744-32.035656-15.626925-53.132158-30.473066-1.56259-43.756617-2.344397-62.509745-2.344397-108.608712 0-195.340139 17.190538-253.16109 51.570591-38.286016 21.878308-68.759082 53.132158-94.544377 96.106968-24.223729-70.322696-47.663604-113.297506-92.982811-168.77406-11.719938 14.846141-21.877285 22.660115-39.067823 34.380053 46.101014 50.788784 75.011489 103.140158 96.888774 179.713214 13.282528 45.319207 21.097525 96.107991 21.097525 135.175814 0 3.126204 0 4.68777-0.781807 9.376564l54.694748-7.032167c-3.126204-12.501744-3.126204-14.064334-13.282528-73.447876-3.126204-19.533912-6.251384-33.598246-10.938131-54.694748 33.597223-62.509745 67.196492-95.326184 121.89124-120.329673L592.08914 456.275677l-93.762571 0c-46.101014 0-59.383541-0.781807-82.04468-3.126204 2.344397 17.971321 3.126204 33.598246 3.126204 62.508722L419.408093 639.895878c0 30.473066-0.781807 42.97481-3.126204 61.726915 25.005535-3.12518 47.663604-3.906987 84.38703-3.906987L734.297121 697.715806c37.50421 0 59.383541 0.781807 84.38703 3.906987-2.344397-17.189515-3.126204-31.253849-3.126204-63.290528l0-122.67407c0-28.128669 0.781807-45.318184 3.126204-62.508722-24.221682 2.344397-45.319207 3.126204-81.260826 3.126204l-96.106968 0L641.316357 332.820824zM467.07272 500.813078l300.042887 0L767.115607 652.3966 467.07272 652.3966 467.07272 500.813078z"  horiz-adv-x="1024" />

    
    <glyph glyph-name="usb" unicode="&#59135;" d="M801.391304 675.884522c0 40.69287-32.545391 73.594435-72.570434 73.594435-40.025043 0-72.570435-32.901565-72.570435-73.371827 0-27.648 15.137391-51.867826 37.531826-64.445217 2.938435-3.428174 4.964174-10.284522 4.964174-13.712696v-0.912695c-1.80313-40.247652-8.592696-72.926609-16.050087-95.321044-9.728-28.805565-86.372174-90.512696-116.424348-96.456348-13.133913-2.738087-17.875478 1.380174-17.875478 23.307131V749.478957c0 3.428174 0.445217 8.013913 4.296348 11.442086a73.950609 73.950609 0 0 1 32.322782 61.239653c0 40.69287-32.545391 73.616696-72.570435 73.616695-40.002783 0-72.570435-32.923826-72.570434-73.616695 0-25.822609 13.133913-48.684522 33.012869-61.707131l0.222609-0.222608c0.222609-0.222609 0.445217-0.222609 0.890435-0.445218 0.467478-0.222609 0.912696-0.467478 1.380174-0.934956 5.186783-3.428174 7.457391-6.856348 7.457391-9.594435v-448.690087c0-16.005565-2.493217-28.115478-18.988522-26.957913-16.517565 1.135304-94.274783 53.715478-116.201739 100.797217-10.195478 21.704348-15.382261 42.963478-15.382261 64v1.135305c0 7.078957 0 25.822609 7.234783 31.098434a73.661217 73.661217 0 0 1 28.93913 58.724174c0 40.69287-32.567652 73.616696-72.570435 73.616696A73.282783 73.282783 0 0 1 222.608696 529.808696c0-27.202783 14.692174-50.977391 36.173913-63.554783 5.431652-3.428174 6.789565-6.611478 8.592695-24.219826 1.80313-17.586087 6.789565-56.230957 20.569044-91.202783 16.517565-42.518261 47.259826-74.50713 89.755826-103.290434 30.742261-21.281391 57.210435-37.954783 72.570435-60.371479 15.382261-22.394435 23.062261-30.853565 23.062261-61.70713 0 0 0 2.048 0 0 0-29.250783-9.037913-31.98887-21.014261-40.69287a112.795826 112.795826 0 0 1-53.136696-95.988869V-13.712696c0-62.864696 50.42087-113.819826 112.595478-113.819826 62.174609 0 112.595478 50.977391 112.595479 113.819826a113.819826 113.819826 0 0 1-30.987131 78.402783 107.408696 107.408696 0 0 1-21.704348 18.966261c-16.940522 11.887304-23.28487 26.267826-23.284869 41.382956V180.090435c0 57.366261 9.282783 93.94087 25.088 121.833739 16.517565 29.028174 41.405217 51.645217 80.050087 78.157913 42.518261 28.805565 72.793043 60.816696 89.533217 103.334956 12.889043 32.901565 17.185391 70.856348 19.433739 116.335305 0.222609 4.118261 3.161043 13.245217 7.457392 15.538087A74.262261 74.262261 0 0 1 801.391304 675.884522zM295.17913 493.033739c-20.123826 0-36.396522 16.695652-36.396521 37.019826 0 20.346435 16.272696 37.042087 36.396521 37.042087s36.396522-16.695652 36.396522-37.042087c0-20.346435-16.250435-37.019826-36.396522-37.019826zM512 785.586087c-20.123826 0-36.396522 16.695652-36.396522 37.019826 0 20.346435 16.272696 36.797217 36.396522 36.797217s36.396522-16.695652 36.396522-37.019826c0-20.346435-16.272696-36.797217-36.396522-36.797217z m216.82087-146.298435c-20.123826 0-36.396522 16.695652-36.396522 37.042087 0 20.324174 16.250435 36.797217 36.396522 36.797218 20.123826 0 36.396522-16.695652 36.396521-37.042087 0-20.346435-16.272696-36.797217-36.396521-36.797218z"  horiz-adv-x="1024" />

    
    <glyph glyph-name="youxiajiaogouxuan" unicode="&#59575;" d="M256-128h768V640l-768-768z m493.6 108.8L704-64l-45.6 45.6L576 64l45.6 45.6L704 26.4l210.4 210.4 45.6-45.6-210.4-210.4z"  horiz-adv-x="1024" />

    
    <glyph glyph-name="gantanhao-yuankuang" unicode="&#59628;" d="M512 832C264.8 832 64 631.2 64 384s200.8-448 448-448 448 200.8 448 448S759.2 832 512 832z m32-704h-64v64h64v-64z m-64 128V640h64v-384h-64z"  horiz-adv-x="1024" />

    
    <glyph glyph-name="baoxiu" unicode="&#58971;" d="M901.12 768l-381.44 76.8h-12.8-2.56l-381.44-76.8c-12.8-2.56-20.48-12.8-20.48-25.6v-332.8c0-253.44 202.24-435.2 404.48-486.4h10.24c199.68 51.2 404.48 232.96 404.48 486.4v332.8c0 12.8-7.68 23.04-20.48 25.6z m-30.72-358.4c0-222.72-179.2-386.56-358.4-435.2-179.2 48.64-358.4 209.92-358.4 435.2v312.32l358.4 71.68 358.4-71.68V409.6zM409.6 665.6c-28.16 0-56.32-7.68-81.92-20.48-15.36-7.68-17.92-28.16-5.12-40.96l87.04-87.04-30.72-30.72-87.04 87.04c-5.12 5.12-10.24 7.68-17.92 7.68-10.24 0-17.92-5.12-23.04-15.36-33.28-66.56-23.04-151.04 33.28-207.36 35.84-35.84 79.36-51.2 125.44-51.2 20.48 0 40.96 2.56 58.88 10.24l145.92-140.8 17.92-17.92c10.24-10.24 25.6-10.24 35.84 0l17.92 17.92 35.84 35.84 17.92 17.92c10.24 10.24 10.24 25.6 0 35.84l-17.92 17.92-145.92 140.8c23.04 64 7.68 135.68-40.96 186.88-33.28 35.84-79.36 53.76-125.44 53.76z m120.32-222.72c-7.68-17.92-2.56-38.4 12.8-53.76l145.92-140.8-35.84-35.84-145.92 140.8c-10.24 10.24-23.04 15.36-35.84 15.36-5.12 0-10.24 0-17.92-2.56-12.8-5.12-28.16-7.68-43.52-7.68-33.28 0-66.56 12.8-89.6 38.4-30.72 30.72-43.52 71.68-35.84 112.64l58.88-58.88c10.24-10.24 23.04-15.36 35.84-15.36 12.8 0 25.6 5.12 35.84 15.36l30.72 30.72c20.48 20.48 20.48 53.76 0 71.68l-58.88 58.88c7.68 2.56 15.36 2.56 23.04 2.56 33.28 0 66.56-12.8 89.6-38.4 35.84-33.28 46.08-87.04 30.72-133.12z"  horiz-adv-x="1024" />

    
    <glyph glyph-name="dianzan1" unicode="&#58972;" d="M768-41.353846h-567.138462c-63.803077 0-115.790769 51.987692-115.790769 115.790769V388.726154c0 63.803077 51.987692 115.790769 115.790769 115.790769h117.366154c13.390769 5.513846 88.221538 42.535385 95.31077 241.033846 0 33.083077 24.418462 58.289231 60.652307 63.015385 58.289231 7.876923 133.907692-31.507692 154.387693-102.4 18.116923-64.590769 0-150.449231-14.178462-201.649231h208.738462c33.870769 0 66.166154-14.966154 88.221538-40.96 22.055385-25.993846 31.507692-60.652308 25.206154-94.523077l-55.138462-314.289231c-8.664615-55.926154-56.713846-96.098462-113.427692-96.098461z m-567.138462 482.067692c-29.144615 0-52.775385-23.630769-52.775384-52.775384v-314.289231c0-29.144615 23.630769-52.775385 52.775384-52.775385h567.138462c25.993846 0 47.261538 18.116923 51.987692 43.323077l55.138462 314.289231c2.363077 15.753846-1.575385 30.72-11.815385 43.323077-10.24 11.815385-24.418462 18.904615-40.172307 18.904615h-252.061539c-10.24 0-19.692308 4.726154-25.993846 13.390769-5.513846 8.664615-7.089231 19.692308-3.938462 29.144616 13.390769 35.446154 44.110769 141.784615 25.993847 204.8-8.664615 29.932308-35.446154 48.049231-57.501539 54.350769-18.116923 5.513846-30.72 3.150769-34.658461 1.575385v-0.787693c-8.664615-268.603077-133.907692-299.323077-148.086154-301.686154-1.575385 0-3.938462-0.787692-5.513846-0.787692H200.861538zM200.861538 472.221538c-46.473846 0-84.283077-37.809231-84.283076-84.283076v-314.289231c0-46.473846 37.809231-84.283077 84.283076-84.283077h72.467693V472.221538h-72.467693zM273.329231-41.353846h-72.467693c-63.803077 0-115.790769 51.987692-115.790769 115.790769V388.726154c0 63.803077 51.987692 115.790769 115.790769 115.790769h72.467693c17.329231 0 31.507692-14.178462 31.507692-31.507692V-9.846154c0-17.329231-14.178462-31.507692-31.507692-31.507692z m-72.467693 482.067692c-29.144615 0-52.775385-23.630769-52.775384-52.775384v-314.289231c0-29.144615 23.630769-52.775385 52.775384-52.775385h40.96V440.713846h-40.96z"  horiz-adv-x="1024" />

    
    <glyph glyph-name="screen" unicode="&#59092;" d="M960.3 118.4v679.2h-896.6v-679.2h308.6v-107.3h-182.3v-40.7h644v40.7h-182.3v107.3h308.6zM910.3 747.6v-446.4l-796.6-0.2v446.6h796.6zM113.7 260.3l796.5 0.2v-92.2h-796.5v92zM611 11.1h-198v107.3h198v-107.3z"  horiz-adv-x="1024" />

    
    <glyph glyph-name="huiyuan" unicode="&#58934;" d="M194.4 72.8c-9.6 0-17.6 6.4-20 16L72 529.6H60c-26.4 0.8-47.2 22.4-47.2 48.8s21.6 48 48.8 48c26.4 0 48.8-21.6 48.8-48.8 0-6.4-1.6-13.6-4-20l-7.2-13.6 217.6-97.6L496 724l-12 8.8c-12.8 8.8-20.8 24-20.8 40 0 26.4 21.6 48.8 48.8 48.8s48.8-21.6 48.8-48.8c0-16-8-31.2-20.8-40l-12-8 160-278.4 236.8 98.4-6.4 14.4c-2.4 6.4-4 12.8-4 19.2 0 26.4 21.6 48.8 48.8 48.8 26.4 0 48.8-21.6 48.8-48.8 0-26.4-21.6-48.8-48.8-48.8h-13.6L847.2 88c-2.4-9.6-10.4-16-20-16H194.4z m16 40h601.6l88 377.6-212-88c-2.4-0.8-4.8-1.6-8-1.6-7.2 0-13.6 4-17.6 9.6L510.4 672 340.8 410.4c-4-5.6-10.4-9.6-16.8-9.6-3.2 0-5.6 0.8-8 1.6L123.2 488.8l87.2-376zM161.6-40c-13.6 0-24 10.4-24 24s10.4 24 24 24h699.2c13.6 0 24-10.4 24-24s-10.4-24-24-24H161.6z"  horiz-adv-x="1024" />

    
    <glyph glyph-name="anquan" unicode="&#59026;" d="M556.022691-6.358109c-18.134109-9.951418-31.315782-14.382545-42.710109-14.382546-11.478109 0-24.278109 4.384582-42.710109 14.717673-307.628218 171.985455-306.613527 266.202764-302.834037 616.727273 0.381673 34.853236 0.781964 72.043055 0.902982 111.885964a2498.327273 2498.327273 0 0 0 151.766109 40.112872c58.051491 13.498182 122.619345 22.2208 191.878982 25.963055 131.760873-14.792145 232.829673-34.304 342.304582-66.2528 0.195491-45.028073 0.781964-86.621091 1.284654-125.151418 4.756945-352.321164 5.920582-436.047127-299.883054-603.620073m359.861527 604.457891c-0.586473 44.730182-1.256727 93.519127-1.359127 147.102254a30.263855 30.263855 0 0 1-21.4016 28.997819C770.904436 811.3152 661.792582 833.070545 516.468364 849.277673a32.116364 32.116364 0 0 1-4.822109 0.139636c-73.672145-3.844655-142.522182-13.116509-204.660364-27.5456-62.519855-14.531491-122.135273-30.598982-177.124073-47.737018a30.3104 30.3104 0 0 1-21.150254-28.997818c0-48.2304-0.502691-92.625455-0.9216-133.771637-3.807418-350.021818-5.2224-480.991418 333.786763-670.543127 27.9552-15.629964 49.412655-22.285964 71.735855-22.285964 21.9136 0 43.910982 6.702545 71.289018 21.690182 337.696582 185.111273 336.225745 294.7072 331.282618 657.873455m-192.269963-13.526109L453.129309 309.806545 320.344436 444.658036a39.721891 39.721891 0 0 1-56.580654 0.1024 40.848291 40.848291 0 0 1-0.093091-57.250909l161.121745-163.607272c7.521745-7.614836 17.696582-11.906327 28.336873-11.906328s20.843055 4.291491 28.336873 11.924946l298.821818 303.550836a40.792436 40.792436 0 0 1-0.121018 57.222982 39.619491 39.619491 0 0 1-56.552727-0.121018"  horiz-adv-x="1024" />

    
    <glyph glyph-name="qiehuan" unicode="&#59560;" d="M575.914667 170.666667a21.397333 21.397333 0 0 0-21.248 21.162666V576.170667A21.184 21.184 0 0 0 576 597.333333c11.776 0 21.333333-9.706667 21.333333-21.162666v-333.909334l85.568 85.568a21.226667 21.226667 0 0 0 30.101334-0.064c8.32-8.32 8.213333-21.973333 0.085333-30.101333l-120.832-120.810667a21.141333 21.141333 0 0 0-16.341333-6.186666z m-152.789334 426.325333a21.418667 21.418667 0 0 0 24.896-20.864V191.786667a21.205333 21.205333 0 0 0-21.333333-21.162667c-11.797333 0-21.354667 9.706667-21.354667 21.162667V531.733333l-91.669333-91.605333a21.248 21.248 0 0 0-30.122667 0.064 21.418667 21.418667 0 0 0-0.064 30.101333l120.896 120.810667a21.184 21.184 0 0 0 18.752 5.888z m252.202667 181.290667A425.429333 425.429333 0 0 1 512 810.666667C276.352 810.666667 85.333333 619.648 85.333333 384s191.018667-426.666667 426.666667-426.666667 426.666667 191.018667 426.666667 426.666667c0 56.746667-11.093333 112-32.384 163.328a21.333333 21.333333 0 0 1-39.402667-16.341333A382.762667 382.762667 0 0 0 896 384c0-212.074667-171.925333-384-384-384S128 171.925333 128 384 299.925333 768 512 768c51.114667 0 100.8-9.984 146.986667-29.12a21.333333 21.333333 0 0 1 16.341333 39.402667z"  horiz-adv-x="1024" />

    
    <glyph glyph-name="yanjing" unicode="&#59004;" d="M512 554.666667c-93.866667 0-170.666667-76.8-170.666667-170.666667s76.8-170.666667 170.666667-170.666667 170.666667 76.8 170.666667 170.666667-76.8 170.666667-170.666667 170.666667z m0-298.666667c-70.4 0-128 57.6-128 128s57.6 128 128 128 128-57.6 128-128-57.6-128-128-128zM512 746.666667C121.6 746.666667 0 384 0 384s134.4-362.666667 512-362.666667 512 362.666667 512 362.666667S902.4 746.666667 512 746.666667z m0-682.666667C206.933333 64 74.666667 320 46.933333 384 72.533333 448 198.4 704 512 704c315.733333 0 439.466667-253.866667 465.066667-320-27.733333-61.866667-162.133333-320-465.066667-320z"  horiz-adv-x="1024" />

    
    <glyph glyph-name="diqiu" unicode="&#58946;" d="M512 832C264.6 832 64 631.4 64 384s200.6-448 448-448 448 200.6 448 448S759.4 832 512 832z m0-224c-29.5 0-58.3 2.6-86.2 7.5C452 720.7 491.4 776 512 776c20.6 0 60-55.3 86.2-160.5-27.9-4.8-56.7-7.5-86.2-7.5z m140.7 20.4c-13.6 55.7-31.8 102.6-53.1 137.4 63.6-14.6 121.3-44.7 169-86.1-35.3-21.8-74.3-39.1-115.9-51.3z m-281.4 0c-41.6 12.2-80.5 29.6-115.8 51.3 47.7 41.4 105.3 71.4 168.9 86-21.3-34.7-39.4-81.6-53.1-137.3zM679.5 412c-1.3 57.5-6.7 111.9-15.4 161.4 52.5 15 101.3 37.3 144.8 65.8 53.4-62 87.5-140.7 93.7-227.2H679.5z m-558.1 0c6.2 86.4 40.2 165.1 93.5 227.1 43.5-28.5 92.4-50.6 145-65.6-8.7-49.6-14.1-104-15.4-161.5H121.4z m279.1 0c1.3 55.7 6.4 105.4 13.9 148.7 31.6-5.6 64.1-8.7 97.6-8.7 33.4 0 66 3 97.6 8.6 7.5-43.3 12.5-93 13.9-148.6h-223z m408.4-283.2c-43.5 28.5-92.3 50.8-144.8 65.8 8.7 49.6 14.1 104 15.4 161.4h223.1c-6.2-86.5-40.3-165.2-93.7-227.2z m-394.5 78.5c-7.5 43.3-12.5 93-13.9 148.7h222.9c-1.3-55.6-6.3-105.3-13.9-148.6C578 213 545.4 216 512 216c-33.4 0-66-3.1-97.6-8.7zM215 128.9c-53.3 62-87.4 140.7-93.5 227.1h223.1c1.3-57.5 6.7-111.9 15.4-161.5-52.6-15-101.5-37.1-145-65.6zM512-8c-20.6 0-60 55.3-86.2 160.5 27.9 4.8 56.7 7.5 86.2 7.5s58.3-2.7 86.2-7.5C572 47.3 532.6-8 512-8z m87.6 10.2c21.3 34.8 39.5 81.7 53.1 137.4 41.7-12.2 80.6-29.5 115.9-51.2-47.7-41.5-105.4-71.6-169-86.2z m-175.2 0c-63.6 14.6-121.2 44.6-168.9 86 35.2 21.8 74.1 39.1 115.8 51.3 13.7-55.6 31.8-102.5 53.1-137.3z"  horiz-adv-x="1024" />

    
    <glyph glyph-name="jiahao" unicode="&#58887;" d="M884.392 419.312h-336.6v336.6c0 19.422-15.891 35.312-35.313 35.312-19.421 0-35.311-15.89-35.311-35.312v-336.6H140.567c-19.421 0-35.312-15.89-35.312-35.311 0-19.422 15.89-35.312 35.312-35.312h336.6v-336.6c0-19.421 15.89-35.311 35.311-35.311 19.422 0 35.312 15.89 35.312 35.312V348.688h336.6c19.421 0 35.312 15.89 35.312 35.312 0.001 19.421-15.89 35.312-35.31 35.312z"  horiz-adv-x="1024" />

    
    <glyph glyph-name="qianbao" unicode="&#58994;" d="M941.78670592 666.2093437155555c0 72.49414371555555-62.13783665777777 134.63198037333333-134.63198037333333 134.63197923555558H232.37973333333332c-72.49414371555555 0-134.63198037333333-62.13783665777777-134.63198037333333-134.63197923555558v-572.1859163022222c0-72.49414371555555 62.13783665777777-134.63198037333333 134.63198037333333-134.63198037333333h572.1859163022222c72.49414371555555 0 134.63198037333333 62.13783665777777 134.63198037333333 134.63198037333333v142.39920924444445H636.2756744533333c0 2.5890770488888886-116.50844444444445-7.767230008888888-116.50844444444445 137.22105742222223 0 155.34459221333333 126.86475036444445 144.98828629333332 126.86475036444445 144.98828629333332h295.15472554666667v147.57736334222224zM574.1378366577777 376.232769991111c0-100.97398556444443 90.61767850666665-90.61767850666665 90.61767964444445-90.61767850666665h266.6748836977778v194.18074111999996h-258.90765482666666c0-2.5890770488888886-98.38490851555554 5.17815296-98.38490851555554-103.56306261333333z m100.97398556444443 44.01430186666666c18.123535928888888 0 33.657994808888894-15.534458879999999 33.657994808888894-33.657994808888894 0-12.945382968888888-7.767230008888888-23.301688888888886-18.123535928888888-31.068918897777777-10.35630592-5.17815296-23.301688888888886-5.17815296-33.657994808888894 0s-18.123535928888888 18.123535928888888-18.123535928888888 31.068918897777777c2.5890770488888886 18.123535928888888 18.123535928888888 33.657994808888894 36.247071857777776 33.657994808888894z"  horiz-adv-x="1024" />

    
    <glyph glyph-name="lingquanzhongxin" unicode="&#59623;" d="M277.333333 0v106.666667a21.333333 21.333333 0 0 0 42.666667 0v-106.666667h576c23.424 0 42.666667 22.613333 42.666667 46.122667v170.304c-26.24 6.336-55.210667 19.776-75.008 39.573333a149.333333 149.333333 0 0 0 0 211.2c19.797333 19.776 48.768 33.216 75.008 39.552V707.242667C938.666667 730.816 919.530667 746.666667 896 746.666667H320v-128a21.333333 21.333333 0 0 0-42.666667 0V746.666667H128c-23.424 0-42.666667-15.936-42.666667-39.424v-189.909334c20.544-7.317333 37.205333-19.157333 53.12-35.072a149.333333 149.333333 0 0 0 0-211.2c-15.914667-15.893333-32.576-27.733333-53.12-35.050666v-189.888C85.333333 22.549333 104.469333 0 128 0h149.333333z m704 46.122667C981.333333-1.024 942.933333-42.666667 896-42.666667H128c-47.104 0-85.333333 41.664-85.333333 88.789334V270.272c24.746667 1.749333 46.762667 12.074667 65.664 30.976a106.666667 106.666667 0 0 1 0 150.848c-18.901333 18.901333-40.938667 29.226667-65.664 30.976V707.242667C42.666667 754.389333 81.066667 789.333333 128 789.333333h768c47.104 0 85.333333-34.986667 85.333333-82.090666v-239.253334c-29.76 2.090667-64.768-8.234667-87.509333-30.976a106.666667 106.666667 0 0 1 0-150.848c22.741333-22.741333 57.749333-33.066667 87.509333-30.976v-209.066666zM298.666667 554.666667a21.333333 21.333333 0 0 0 21.333333-21.333334v-128a21.333333 21.333333 0 0 0-42.666667 0v128a21.333333 21.333333 0 0 0 21.333334 21.333334z m0-213.333334a21.333333 21.333333 0 0 0 21.333333-21.333333v-128a21.333333 21.333333 0 0 0-42.666667 0v128a21.333333 21.333333 0 0 0 21.333334 21.333333z m252.288 85.333334l-76.48 92.8a21.333333 21.333333 0 0 0 32.384 27.733333L597.333333 438.144l90.453334 109.098667a21.333333 21.333333 0 1 0 32.426666-27.776L643.690667 426.666667h60.16c11.84 0 21.461333-9.472 21.461333-21.333334 0-11.776-9.6-21.333333-21.482667-21.333333H618.666667v-85.333333h85.184c11.861333 0 21.482667-9.472 21.482666-21.333334 0-11.776-9.6-21.333333-21.482666-21.333333H618.666667v-85.184c0-11.861333-9.472-21.482667-21.333334-21.482667-11.776 0-21.333333 9.578667-21.333333 21.482667V256h-85.184A21.354667 21.354667 0 0 0 469.333333 277.333333c0 11.776 9.6 21.333333 21.482667 21.333334H576v85.333333h-85.184A21.354667 21.354667 0 0 0 469.333333 405.333333c0 11.776 9.6 21.333333 21.482667 21.333334h60.138667z"  horiz-adv-x="1024" />

    
    <glyph glyph-name="xiangxia" unicode="&#59257;" d="M524.8 214.4L118.4 620.8c-12.8 12.8-32 12.8-44.8 0-12.8-12.8-12.8-32 0-44.8l428.8-428.8c6.4-6.4 16-9.6 22.4-9.6s16 3.2 22.4 9.6L979.2 576c12.8 12.8 12.8 32 0 44.8-12.8 12.8-32 12.8-44.8 0L524.8 214.4z"  horiz-adv-x="1024" />

    
    <glyph glyph-name="fuwu" unicode="&#58985;" d="M586 768H443.8l-71.1-123.5L443.8 521H586l71.1 123.5L586 768z m-24.1-205H468l-47 81.5 47 81.5h93.9l46.9-81.5-46.9-81.5zM822.8 376.1H680.5l-71.1-123.5 71.1-123.5H821l53.5 89.7 19.5 33.8-71.2 123.5z m15.6-135.8l-41.2-69.1h-92.5l-46.9 81.5 46.9 81.5h93.9l46.9-81.5-7.1-12.4zM392.9 218.9l19.5 33.8-71.1 123.5H199l-71.1-123.5L199 129.2h140.5l53.4 89.7z m-169.7-47.7l-46.9 81.5 46.9 81.5H317l46.9-81.5-7.1-12.4-41.2-69.1h-92.4zM589.5 166.8c-3.2 5.5-9.7 8-15.8 6.1-20.2-6.3-41.5-9.5-63.3-9.5-21.5 0-42.4 3.1-62.3 9.1-6 1.8-12.4-0.6-15.6-6-4.5-7.6-0.8-17.4 7.6-20 22.6-6.9 46.2-10.4 70.3-10.4 24.5 0 48.4 3.6 71.4 10.8 8.3 2.7 12.1 12.3 7.7 19.9zM669.6 54.6c-3.8 6.3-11.9 8.4-18.3 5-43.7-20.8-91.7-32-140.9-32-49.6 0-97.9 11.3-141.7 32.3-6.5 4-15 1.9-18.8-4.8l-0.3-0.5c-3.6-6.3-1.4-14.2 4.8-18.1l0.1-0.1 4.8-2.4c47.5-22.4 98.3-33.7 151.1-33.7 51.9 0 102 11 148.8 32.7 1.9 0.9 3.8 1.8 5.8 2.7 6.4 4 8.5 12.4 4.6 18.9zM668.9 558.5c-3.3-5.4-2.3-12.4 2.3-16.8 15.2-14.7 28.3-31.8 38.8-51 10.4-18.8 17.7-38.7 22-59.1 1.3-6.1 6.5-10.6 12.8-10.8 8.8-0.3 15.6 7.7 13.8 16.3-4.9 23.2-13.2 45.6-24.8 66.7-11.8 21.5-26.5 40.7-43.9 57.5-6.3 6-16.5 4.6-21-2.8zM728.3 682.9c-3.6-6.4-1.6-14.5 4.5-18.4 39.3-28.3 72.2-65.1 95.9-108.2 23.9-43.5 37.3-91.4 40.1-140-0.4-7.6 5.6-14.1 13.3-14.2h0.6c7.3-0.1 13 5.6 13.5 12.9v0.1l-0.3 5.4c-3.3 52.5-17.9 102.6-43.4 148.9-25 45.6-58.8 84.2-100.4 114.9-1.7 1.3-3.4 2.5-5.2 3.7-6.4 3.7-14.8 1.5-18.6-5.1zM277.4 422.4c6.3 0.7 11.2 5.7 12 12.1 2.4 21.1 7.9 41.9 16.7 61.9 8.6 19.7 19.8 37.7 33.3 53.5 4 4.8 4.4 11.6 0.8 16.7-5.1 7.2-15.6 7.7-21.3 1-15.4-18-28-38.2-37.7-60.3-9.8-22.5-16.1-45.9-18.7-69.9-1.1-8.7 6.2-16 14.9-15zM144.7 393.8c7.2 1 12.4 7.5 11.9 14.8-1.5 48.4 7.5 97 27.2 142.2 19.9 45.5 49.5 85.3 86.3 117.1 6.3 4.4 7.7 13 3.2 19.2l-0.3 0.5c-4.3 5.9-12.4 6.9-18.4 2.9l-0.1-0.1c-1.4-1.2-2.7-2.3-4.1-3.5-39.5-34.6-70.2-76.8-91.4-125.2-20.8-47.6-30.8-98-29.7-149.7 0-2.1 0.1-4.3 0.2-6.4 0.8-7.5 7.7-12.8 15.2-11.8z"  horiz-adv-x="1024" />

    
    <glyph glyph-name="daipingjia" unicode="&#58891;" d="M657.066667-38.4c-8.533333 0-17.066667 4.266667-21.333334 10.666667l-72.533333 96H153.6c-53.333333 0-96 38.4-96 87.466666V699.733333c0 49.066667 42.666667 87.466667 96 87.466667h716.8c53.333333 0 96-38.4 96-87.466667v-546.133333c0-49.066667-42.666667-87.466667-96-87.466667h-130.133333l-61.866667-93.866666c-4.266667-6.4-12.8-10.666667-21.333333-10.666667zM153.6 733.866667c-23.466667 0-42.666667-14.933333-42.666667-34.133334v-546.133333c0-19.2 19.2-34.133333 42.666667-34.133333H576c8.533333 0 17.066667-4.266667 21.333333-10.666667l57.6-76.8L704 106.666667c4.266667 8.533333 12.8 12.8 21.333333 12.8h142.933334c23.466667 0 42.666667 14.933333 42.666666 34.133333V699.733333c0 19.2-19.2 34.133333-42.666666 34.133334H153.6zM260.266667 588.8h505.6V533.333333H260.266667zM260.266667 403.2h505.6v-55.466667H260.266667z"  horiz-adv-x="1024" />

    
    <glyph glyph-name="yingpan" unicode="&#59060;" d="M896 853.333333H128c-12.8 0-21.333333-8.533333-21.333333-21.333333v-896c0-12.8 8.533333-21.333333 21.333333-21.333333h768c12.8 0 21.333333 8.533333 21.333333 21.333333V832c0 12.8-8.533333 21.333333-21.333333 21.333333z m-21.333333-896H149.333333V810.666667h725.333334v-853.333334zM234.666667 768H192v-64h42.666667V768z m597.333333 0h-42.666667v-64h42.666667V768z m-192-746.666667h192v42.666667h-192v-42.666667z m-142.933333 305.066667c4.266667-4.266667 10.666667-6.4 14.933333-6.4s10.666667 2.133333 14.933333 6.4l64 64c8.533333 8.533333 8.533333 21.333333 0 29.866667l-64 64c-8.533333 8.533333-21.333333 8.533333-29.866666 0l-64-64c-8.533333-8.533333-8.533333-21.333333 0-29.866667l64-64z m14.933333 113.066667l34.133333-34.133334-34.133333-34.133333-34.133333 34.133333 34.133333 34.133334zM264.533333 19.2c4.266667-2.133333 8.533333-4.266667 12.8-4.266667h4.266667c6.4 2.133333 10.666667 6.4 14.933333 10.666667l59.733334 117.333333 36.266666-32c4.266667-4.266667 8.533333-6.4 14.933334-6.4h230.4c6.4 0 10.666667 2.133333 14.933333 6.4l151.466667 160c4.266667 4.266667 6.4 8.533333 6.4 14.933334V522.666667c0 6.4-2.133333 10.666667-6.4 14.933333l-151.466667 160c-4.266667 4.266667-8.533333 6.4-14.933333 6.4H407.466667c-6.4 0-10.666667-2.133333-14.933334-6.4l-172.8-160c-4.266667-4.266667-6.4-10.666667-6.4-14.933333v-236.8c0-6.4 2.133333-10.666667 6.4-14.933334l72.533334-66.133333-108.8-85.333333c-4.266667-4.266667-8.533333-10.666667-8.533334-17.066667s2.133333-12.8 8.533334-17.066667l81.066666-66.133333z m-8.533333 277.333333V514.133333l160 147.2h211.2l138.666667-147.2v-219.733333L629.333333 149.333333h-211.2l-38.4 34.133334 32 61.866666c4.266667 8.533333 2.133333 19.2-6.4 25.6-8.533333 6.4-19.2 6.4-27.733333 0l-51.2-40.533333-70.4 66.133333z m68.266667-119.466666l-53.333334-106.666667-40.533333 32 93.866667 74.666667z"  horiz-adv-x="1024" />

    
    <glyph glyph-name="gongzhang" unicode="&#59156;" d="M895.5 134.3h-767c-35.8 0-65-29.3-65-65v-69.5h897v69.5c0 35.7-29.3 65-65 65zM848.4 242.7H582.2c-4.8 11.4-7.4 23.3-7.4 35.6 0 37.3 9.8 71.2 44.7 96.2 69.6 38.1 116.7 111.9 116.7 196.8 0 123.9-100.4 224.3-224.3 224.3S287.6 695.2 287.6 571.3c0-84.9 47.2-158.7 116.7-196.8 35-25 44.7-58.9 44.7-96.2 0-12.3-2.6-24.2-7.4-35.6h-266v-81.3h672.8v81.3zM105.5-11.4h813v-16.3h-813z"  horiz-adv-x="1024" />

    
    <glyph glyph-name="jindu" unicode="&#58902;" d="M318.976 570.88H194.048v-568.32h124.928v568.32zM587.264 404.48H462.336v-401.408h124.928V404.48z m269.312 400.384h-124.928v-802.816h124.928V804.864zM980.992-40.96l-895.488 0.512V853.504C85.504 877.056 66.56 896 43.008 896 19.456 896 0.512 877.056 0.512 853.504V-128h980.48c24.064 0 43.52 19.456 43.52 43.52s-19.456 43.52-43.52 43.52z"  horiz-adv-x="1025" />

    
    <glyph glyph-name="dingwei" unicode="&#58904;" d="M510.9 54.9c6 0 11.7 2.7 15.5 7.2 11.2 13.3 273.4 328.1 273.4 482.1 0 159.3-129.6 288.9-288.9 288.9C351.6 833.1 222 703.5 222 544.2c0-153.9 262.2-468.8 273.3-482.1 3.9-4.5 9.6-7.2 15.6-7.2z m0 737.7c137 0 248.4-111.4 248.4-248.4 0-119.3-191.8-366.6-248.4-437-56.6 70.4-248.4 317.7-248.4 437 0.1 137 111.5 248.4 248.4 248.4z m123.7-225.8c0 66.1-53.8 119.9-119.9 119.9-66.1 0-119.9-53.8-119.9-119.9S448.7 447 514.8 447s119.8 53.7 119.8 119.8z m-199.2 0c0 43.8 35.6 79.3 79.4 79.3 43.7 0 79.3-35.6 79.3-79.3s-35.6-79.3-79.3-79.3c-43.8 0-79.4 35.6-79.4 79.3z m212-410.8c-10.9 2.3-21.7-4.9-23.9-15.8-2.2-11 4.9-21.6 15.8-23.9 78.7-15.9 119.9-44 119.9-63.5 0-30.8-96.8-75.5-248.4-75.5-151.6 0-248.4 44.7-248.4 75.5 0 19.8 42 48.1 122.3 64 11 2.2 18.1 12.8 15.9 23.8-2.2 11-12.8 18.1-23.8 16-98.5-19.5-155-57.3-155-103.7 0-76.2 145.3-116 288.9-116 143.6 0 288.9 39.9 288.9 116 0.2 45.9-55.3 83.5-152.2 103.1z"  horiz-adv-x="1024" />

    
    <glyph glyph-name="Group-" unicode="&#59015;" d="M809.28 630.72a32 32 0 0 0 45.44-45.44l-448-448a32 32 0 0 0-45.44 0l-224 224a32 32 0 0 0 45.44 45.44l201.28-201.6z"  horiz-adv-x="1024" />

    
    <glyph glyph-name="Group-1" unicode="&#59019;" d="M727.68 497.28L456 224a32 32 0 0 0-22.4-9.28 32 32 0 0 0-22.72 9.28L275.2 361.28a32 32 0 0 0 0 45.44 32 32 0 0 0 45.12 0l113.28-113.28 248.64 248.96a32 32 0 0 0 45.44 0 32 32 0 0 0 0-45.12M512 832a448 448 0 1 1 448-448A448 448 0 0 1 512 832"  horiz-adv-x="1024" />

    
    <glyph glyph-name="Group-2" unicode="&#59023;" d="M896 384a384 384 0 1 1-384-384 384 384 0 0 1 384 384z m64 0A448 448 0 1 0 512 832a448 448 0 0 0 448-448zM425.28 585.28a32 32 0 0 0 45.44 45.44l224-224a32 32 0 0 0 0-45.44l-224-224a32 32 0 0 0-45.44 45.44l201.6 201.28z"  horiz-adv-x="1024" />

    
    <glyph glyph-name="check-circle" unicode="&#59261;" d="M699 543h-46.9c-10.2 0-19.9-4.9-25.9-13.3L469 311.70000000000005l-71.2 98.8c-6 8.3-15.6 13.3-25.9 13.3H325c-6.5 0-10.3-7.4-6.5-12.7l124.6-172.8c12.7-17.7 39-17.7 51.7 0l210.6 292c3.9 5.3 0.1 12.7-6.4 12.7zM512 832C264.6 832 64 631.4 64 384s200.6-448 448-448 448 200.6 448 448S759.4 832 512 832z m0-820c-205.4 0-372 166.6-372 372s166.6 372 372 372 372-166.6 372-372-166.6-372-372-372z"  horiz-adv-x="1024" />

    
    <glyph glyph-name="Dollar" unicode="&#59262;" d="M512 832C264.6 832 64 631.4 64 384s200.6-448 448-448 448 200.6 448 448S759.4 832 512 832z m0-820c-205.4 0-372 166.6-372 372s166.6 372 372 372 372-166.6 372-372-166.6-372-372-372zM559.7 407.2l-25.4 5.9V547.4c38-5.2 61.5-29 65.5-58.2 0.5-4 3.9-6.9 7.9-6.9h44.9c4.7 0 8.4 4.1 8 8.8-6.1 62.3-57.4 102.3-125.9 109.2V633c0 4.4-3.6 8-8 8h-28.1c-4.4 0-8-3.6-8-8v-33c-70.8-6.9-126.2-46-126.2-119 0-67.6 49.8-100.2 102.1-112.7l24.7-6.3v-142.7c-44.2 5.9-69 29.5-74.1 61.3-0.6 3.8-4 6.6-7.9 6.6H363c-4.7 0-8.4-4-8-8.7 4.5-55 46.2-105.6 135.2-112.1V135c0-4.4 3.6-8 8-8h28.4c4.4 0 8 3.6 8 8.1l-0.2 31.7c78.3 6.9 134.3 48.8 134.3 124-0.1 69.4-44.2 100.4-109 116.4z m-68.6 16.2c-5.6 1.6-10.3 3.1-15 5-33.8 12.2-49.5 31.9-49.5 57.3 0 36.3 27.5 57 64.5 61.7v-124zM534.3 219V352.7c3.1-0.9 5.9-1.6 8.8-2.2 47.3-14.4 63.2-34.4 63.2-65.1 0-39.1-29.4-62.6-72-66.4z"  horiz-adv-x="1024" />

    
    <glyph glyph-name="compass" unicode="&#59263;" d="M512 832C264.6 832 64 631.4 64 384s200.6-448 448-448 448 200.6 448 448S759.4 832 512 832z m0-820c-205.4 0-372 166.6-372 372s166.6 372 372 372 372-166.6 372-372-166.6-372-372-372zM710.4 600.1c-8 3.1-16.7 2.9-24.5-0.5L414.9 481 296.4 210c-3.6-8.2-3.6-17.5 0-25.7 3.4-7.8 9.7-13.9 17.7-17 3.8-1.5 7.7-2.2 11.7-2.2 4.4 0 8.7 0.9 12.8 2.7l271 118.6 118.5 271c3.6 8.2 3.6 17.5 0 25.7-3.5 7.9-9.8 13.9-17.7 17zM576.8 361.6l26.2-26.2-42.4-42.4-26.2 26.2L380 251.6 447.5 406 422 431.6l42.4 42.4 25.5-25.5L644.4 516l-67.6-154.4zM464.4 474L422 431.6l25.5-25.6 86.9-86.8 26.2-26.2 42.4 42.4-26.2 26.2-86.8 86.9z"  horiz-adv-x="1024" />

    
    <glyph glyph-name="close-circle" unicode="&#59264;" d="M685.4 541.2c0 4.4-3.6 8-8 8l-66-0.3L512 430.4l-99.3 118.4-66.1 0.3c-4.4 0-8-3.5-8-8 0-1.9 0.7-3.7 1.9-5.2l130.1-155L340.5 226c-1.2-1.5-1.9-3.3-1.9-5.2 0-4.4 3.6-8 8-8l66.1 0.3L512 331.6l99.3-118.4 66-0.3c4.4 0 8 3.5 8 8 0 1.9-0.7 3.7-1.9 5.2L553.5 381l130.1 155c1.2 1.4 1.8 3.3 1.8 5.2zM512 831C264.6 831 64 630.4 64 383s200.6-448 448-448 448 200.6 448 448S759.4 831 512 831z m0-820c-205.4 0-372 166.6-372 372s166.6 372 372 372 372-166.6 372-372-166.6-372-372-372z"  horiz-adv-x="1024" />

    
    <glyph glyph-name="info-circle" unicode="&#59265;" d="M512 832C264.6 832 64 631.4 64 384s200.6-448 448-448 448 200.6 448 448S759.4 832 512 832z m0-820c-205.4 0-372 166.6-372 372s166.6 372 372 372 372-166.6 372-372-166.6-372-372-372zM512 560m-48 0a48 48 0 1 1 96 0 48 48 0 1 1-96 0ZM536 448h-48c-4.4 0-8-3.6-8-8v-272c0-4.4 3.6-8 8-8h48c4.4 0 8 3.6 8 8V440c0 4.4-3.6 8-8 8z"  horiz-adv-x="1024" />

    
    <glyph glyph-name="left-circle" unicode="&#59266;" d="M603.3 568.5l-246-178c-4.4-3.2-4.4-9.7 0-12.9l246-178c5.3-3.8 12.7 0 12.7 6.5V253c0 10.2-4.9 19.9-13.2 25.9L457.4 384l145.4 105.2c8.3 6 13.2 15.6 13.2 25.9V562c0 6.5-7.4 10.3-12.7 6.5zM512 832C264.6 832 64 631.4 64 384s200.6-448 448-448 448 200.6 448 448S759.4 832 512 832z m0-820c-205.4 0-372 166.6-372 372s166.6 372 372 372 372-166.6 372-372-166.6-372-372-372z"  horiz-adv-x="1024" />

    
    <glyph glyph-name="down-circle" unicode="&#59267;" d="M690 491h-46.9c-10.2 0-19.9-4.9-25.9-13.2L512 332.4 406.8 477.8c-6 8.3-15.6 13.2-25.9 13.2H334c-6.5 0-10.3-7.4-6.5-12.7l178-246c3.2-4.4 9.7-4.4 12.9 0l178 246c3.9 5.3 0.1 12.7-6.4 12.7zM512 832C264.6 832 64 631.4 64 384s200.6-448 448-448 448 200.6 448 448S759.4 832 512 832z m0-820c-205.4 0-372 166.6-372 372s166.6 372 372 372 372-166.6 372-372-166.6-372-372-372z"  horiz-adv-x="1024" />

    
    <glyph glyph-name="minus-circle" unicode="&#59268;" d="M696 416H328c-4.4 0-8-3.6-8-8v-48c0-4.4 3.6-8 8-8h368c4.4 0 8 3.6 8 8v48c0 4.4-3.6 8-8 8zM512 832C264.6 832 64 631.4 64 384s200.6-448 448-448 448 200.6 448 448S759.4 832 512 832z m0-820c-205.4 0-372 166.6-372 372s166.6 372 372 372 372-166.6 372-372-166.6-372-372-372z"  horiz-adv-x="1024" />

    
    <glyph glyph-name="plus-circle" unicode="&#59269;" d="M696 416H544V568c0 4.4-3.6 8-8 8h-48c-4.4 0-8-3.6-8-8v-152H328c-4.4 0-8-3.6-8-8v-48c0-4.4 3.6-8 8-8h152v-152c0-4.4 3.6-8 8-8h48c4.4 0 8 3.6 8 8V352h152c4.4 0 8 3.6 8 8v48c0 4.4-3.6 8-8 8zM512 832C264.6 832 64 631.4 64 384s200.6-448 448-448 448 200.6 448 448S759.4 832 512 832z m0-820c-205.4 0-372 166.6-372 372s166.6 372 372 372 372-166.6 372-372-166.6-372-372-372z"  horiz-adv-x="1024" />

    
    <glyph glyph-name="play-circle" unicode="&#59270;" d="M512 832C264.6 832 64 631.4 64 384s200.6-448 448-448 448 200.6 448 448S759.4 832 512 832z m0-820c-205.4 0-372 166.6-372 372s166.6 372 372 372 372-166.6 372-372-166.6-372-372-372zM719.4 396.9l-296.1 215c-10.6 7.7-25.3 0.2-25.3-12.9v-430c0-13.1 14.8-20.5 25.3-12.9l296.1 215c8.8 6.4 8.8 19.4 0 25.8z m-257.6-134V505.1L628.5 384 461.8 262.9z"  horiz-adv-x="1024" />

    
    <glyph glyph-name="question-circle" unicode="&#59271;" d="M512 832C264.6 832 64 631.4 64 384s200.6-448 448-448 448 200.6 448 448S759.4 832 512 832z m0-820c-205.4 0-372 166.6-372 372s166.6 372 372 372 372-166.6 372-372-166.6-372-372-372zM623.6 579.3C593.6 605.6 554 620 512 620s-81.6-14.5-111.6-40.7C369.2 552 352 515.3 352 476v-7.6c0-4.4 3.6-8 8-8h48c4.4 0 8 3.6 8 8V476c0 44.1 43.1 80 96 80s96-35.9 96-80c0-31.1-22-59.6-56.1-72.7-21.2-8.1-39.2-22.3-52.1-40.9-13.1-19-19.9-41.8-19.9-64.9V276c0-4.4 3.6-8 8-8h48c4.4 0 8 3.6 8 8v22.7c0 19.7 12.4 37.7 30.9 44.8 59 22.7 97.1 74.7 97.1 132.5 0.1 39.3-17.1 76-48.3 103.3zM512 164m-40 0a40 40 0 1 1 80 0 40 40 0 1 1-80 0Z"  horiz-adv-x="1024" />

    
    <glyph glyph-name="right-circle" unicode="&#59272;" d="M666.7 390.5l-246 178c-5.3 3.8-12.7 0.1-12.7-6.5v-46.9c0-10.2 4.9-19.9 13.2-25.9L566.6 384 421.2 278.79999999999995c-8.3-6-13.2-15.6-13.2-25.9V206c0-6.5 7.4-10.3 12.7-6.5l246 178c4.4 3.2 4.4 9.8 0 13zM512 832C264.6 832 64 631.4 64 384s200.6-448 448-448 448 200.6 448 448S759.4 832 512 832z m0-820c-205.4 0-372 166.6-372 372s166.6 372 372 372 372-166.6 372-372-166.6-372-372-372z"  horiz-adv-x="1024" />

    
    <glyph glyph-name="trademark" unicode="&#59273;" d="M512 832C264.6 832 64 631.4 64 384s200.6-448 448-448 448 200.6 448 448S759.4 832 512 832z m0-820c-205.4 0-372 166.6-372 372s166.6 372 372 372 372-166.6 372-372-166.6-372-372-372zM599.5 346.7c34.8 12.8 78.4 49 78.4 119.2 0 71.2-45.5 131.1-144.2 131.1H378c-4.4 0-8-3.6-8-8v-410c0-4.4 3.6-8 8-8h54.5c4.4 0 8 3.6 8 8V334.8h88.7l74.6-159.2c1.3-2.8 4.1-4.6 7.2-4.6h62c1.2 0 2.4 0.3 3.5 0.8 4 2 5.6 6.7 3.6 10.7l-80.6 164.2zM522 391h-81.5V539h83.4c48 0 80.9-25.3 80.9-75.5 0-46.9-29.8-72.5-82.8-72.5z"  horiz-adv-x="1024" />

    
    <glyph glyph-name="timeout" unicode="&#59274;" d="M512 832C264.6 832 64 631.4 64 384s200.6-448 448-448 448 200.6 448 448S759.4 832 512 832z m0-820c-205.4 0-372 166.6-372 372s166.6 372 372 372 372-166.6 372-372-166.6-372-372-372zM424 544h-48c-4.4 0-8-3.6-8-8v-304c0-4.4 3.6-8 8-8h48c4.4 0 8 3.6 8 8V536c0 4.4-3.6 8-8 8zM648 544h-48c-4.4 0-8-3.6-8-8v-304c0-4.4 3.6-8 8-8h48c4.4 0 8 3.6 8 8V536c0 4.4-3.6 8-8 8z"  horiz-adv-x="1024" />

    
    <glyph glyph-name="earth" unicode="&#59275;" d="M854.4 95.1c0.2 0.3 0.5 0.6 0.7 0.9C920.6 173.9 960 274.3 960 384s-39.4 210.1-104.8 288c-0.2 0.3-0.5 0.5-0.7 0.8-1.1 1.3-2.1 2.5-3.2 3.7-0.4 0.5-0.8 0.9-1.2 1.4-1.4 1.6-2.7 3.1-4.1 4.7l-0.1 0.1c-1.5 1.7-3.1 3.4-4.6 5.1l-0.1 0.1c-3.2 3.4-6.4 6.8-9.7 10.1l-0.1 0.1-4.8 4.8-0.3 0.3c-1.5 1.5-3 2.9-4.5 4.3-0.5 0.5-1 1-1.6 1.5-1 1-2 1.9-3 2.8-0.3 0.3-0.7 0.6-1 1C736.4 786.8 629.5 832 512 832s-224.4-45.2-304.3-119.2c-0.3-0.3-0.7-0.6-1-1-1-0.9-2-1.9-3-2.9-0.5-0.5-1-1-1.6-1.5-1.5-1.4-3-2.9-4.5-4.3l-0.3-0.3-4.8-4.8-0.1-0.1c-3.3-3.3-6.5-6.7-9.7-10.1l-0.1-0.1c-1.6-1.7-3.1-3.4-4.6-5.1l-0.1-0.1c-1.4-1.5-2.8-3.1-4.1-4.7-0.4-0.5-0.8-0.9-1.2-1.4-1.1-1.2-2.1-2.5-3.2-3.7-0.2-0.3-0.5-0.5-0.7-0.8C103.4 594.1 64 493.7 64 384s39.4-210.1 104.8-288c0.2-0.3 0.5-0.6 0.7-0.9 1-1.2 2.1-2.5 3.1-3.7 0.4-0.5 0.8-0.9 1.2-1.4 1.4-1.6 2.7-3.1 4.1-4.7 0-0.1 0.1-0.1 0.1-0.2 1.5-1.7 3-3.4 4.6-5l0.1-0.1c3.2-3.4 6.4-6.8 9.6-10.1l0.1-0.1c1.6-1.6 3.1-3.2 4.7-4.7l0.3-0.3c3.3-3.3 6.7-6.5 10.1-9.6 80.1-74 187-119.2 304.5-119.2s224.4 45.2 304.3 119.2c3.4 3.1 6.7 6.3 10 9.6l0.3 0.3c1.6 1.6 3.2 3.1 4.7 4.7l0.1 0.1c3.3 3.3 6.5 6.7 9.6 10.1l0.1 0.1c1.5 1.7 3.1 3.3 4.6 5 0 0.1 0.1 0.1 0.1 0.2 1.4 1.5 2.8 3.1 4.1 4.7 0.4 0.5 0.8 0.9 1.2 1.4 1.2 1.3 2.3 2.5 3.3 3.7z m4.1 142.6c-13.8-32.6-32-62.8-54.2-90.2-24.9 21.5-52.2 40.3-81.5 55.9 11.6 46.9 18.8 98.4 20.7 152.6H887c-3-40.9-12.6-80.6-28.5-118.3zM887 412H743.5c-1.9 54.2-9.1 105.7-20.7 152.6 29.3 15.6 56.6 34.4 81.5 55.9 22.2-27.4 40.4-57.6 54.2-90.2C874.4 492.6 884 452.9 887 412zM658.3 730.5c39.7-16.8 75.8-40 107.6-69.2-18.5-15.8-38.4-29.7-59.4-41.8-15.7 45-35.8 84.1-59.2 115.4 3.7-1.4 7.4-2.9 11-4.4z m-90.6-700.6c-9.2-7.2-18.4-12.7-27.7-16.4V199c39.9-2.8 78.6-11.6 115.7-26.2-8.3-24.6-17.9-47.3-29-67.8-17.4-32.4-37.8-58.3-59-75.1z m59 633.1c11-20.6 20.7-43.3 29-67.8-37.1-14.6-75.8-23.4-115.7-26.2V754.4c9.2-3.7 18.5-9.1 27.7-16.4 21.2-16.7 41.6-42.6 59-75zM540 255.1V356h147.5c-1.6-44.2-7.1-87.1-16.3-127.8l-0.3-1.2c-41.1 15.6-85.1 25.3-130.9 28.1z m0 156.9V512.9c45.8 2.8 89.8 12.5 130.9 28.1l0.3-1.2c9.2-40.7 14.7-83.5 16.3-127.8H540z m-56-56v-100.9c-45.8-2.8-89.8-12.5-130.9-28.1l-0.3 1.2c-9.2 40.7-14.7 83.5-16.3 127.8H484z m-147.5 56c1.6 44.2 7.1 87.1 16.3 127.8l0.3 1.2c41.1-15.6 85-25.3 130.9-28.1V412H336.5zM484 199v-185.4c-9.2 3.7-18.5 9.1-27.7 16.4-21.2 16.7-41.7 42.7-59.1 75.1-11 20.6-20.7 43.3-29 67.8 37.2 14.6 75.9 23.3 115.8 26.1z m0 370c-39.9 2.8-78.6 11.6-115.7 26.2 8.3 24.6 17.9 47.3 29 67.8 17.4 32.4 37.8 58.4 59.1 75.1 9.2 7.2 18.4 12.7 27.7 16.4V569zM365.7 730.5c3.7 1.5 7.3 3 11 4.4-23.4-31.3-43.5-70.4-59.2-115.4-21 12-40.9 26-59.4 41.8 31.8 29.2 67.9 52.4 107.6 69.2zM165.5 530.3c13.8 32.6 32 62.8 54.2 90.2 24.9-21.5 52.2-40.3 81.5-55.9-11.6-46.9-18.8-98.4-20.7-152.6H137c3 40.9 12.6 80.6 28.5 118.3zM137 356h143.5c1.9-54.2 9.1-105.7 20.7-152.6-29.3-15.6-56.6-34.4-81.5-55.9-22.2 27.4-40.4 57.6-54.2 90.2C149.6 275.4 140 315.1 137 356z m228.7-318.5c-39.7 16.8-75.8 40-107.6 69.2 18.5 15.8 38.4 29.7 59.4 41.8 15.7-45 35.8-84.1 59.2-115.4-3.7 1.4-7.4 2.9-11 4.4z m292.6 0c-3.7-1.5-7.3-3-11-4.4 23.4 31.3 43.5 70.4 59.2 115.4 21-12 40.9-26 59.4-41.8-31.8-29.2-67.9-52.4-107.6-69.2z"  horiz-adv-x="1024" />

    
    <glyph glyph-name="up-circle" unicode="&#59276;" d="M518.5 535.7c-3.2 4.4-9.7 4.4-12.9 0l-178-246c-3.8-5.3 0-12.7 6.5-12.7H381c10.2 0 19.9 4.9 25.9 13.2L512 435.6l105.2-145.4c6-8.3 15.6-13.2 25.9-13.2H690c6.5 0 10.3 7.4 6.5 12.7l-178 246zM512 832C264.6 832 64 631.4 64 384s200.6-448 448-448 448 200.6 448 448S759.4 832 512 832z m0-820c-205.4 0-372 166.6-372 372s166.6 372 372 372 372-166.6 372-372-166.6-372-372-372z"  horiz-adv-x="1024" />

    
    <glyph glyph-name="warning-circle" unicode="&#59277;" d="M512 832C264.6 832 64 631.4 64 384s200.6-448 448-448 448 200.6 448 448S759.4 832 512 832z m0-820c-205.4 0-372 166.6-372 372s166.6 372 372 372 372-166.6 372-372-166.6-372-372-372zM512 208m-48 0a48 48 0 1 1 96 0 48 48 0 1 1-96 0ZM488 320h48c4.4 0 8 3.6 8 8V600c0 4.4-3.6 8-8 8h-48c-4.4 0-8-3.6-8-8v-272c0-4.4 3.6-8 8-8z"  horiz-adv-x="1024" />

    
    <glyph glyph-name="sync" unicode="&#59278;" d="M168 391.8c1 43.7 10 86.1 26.9 126 17.3 41 42.1 77.7 73.7 109.4S337 683.7 378 701c42.4 17.9 87.4 27 133.9 27s91.5-9.1 133.8-27c40.9-17.3 77.7-42.1 109.3-73.8 9.9-9.9 19.2-20.4 27.8-31.4l-60.2-47c-5.3-4.1-3.5-12.5 3-14.1l175.7-43c5-1.2 9.9 2.6 9.9 7.7l0.8 180.9c0 6.7-7.7 10.5-12.9 6.3l-56.4-44.1C765.8 740.9 646.2 804 511.8 804 282.7 804 96.3 620.4 92 392.2c-0.1-4.5 3.5-8.2 8-8.2h60c4.4 0 7.9 3.5 8 7.8zM924 384h-60c-4.4 0-7.9-3.5-8-7.8-1-43.7-10-86.1-26.9-126-17.3-41-42.1-77.8-73.7-109.4S687 84.3 646 67c-42.4-17.9-87.4-27-133.9-27s-91.5 9.1-133.9 27c-40.9 17.3-77.7 42.1-109.3 73.8-9.9 9.9-19.2 20.4-27.8 31.4l60.2 47c5.3 4.1 3.5 12.5-3 14.1l-175.7 43c-5 1.2-9.9-2.6-9.9-7.7l-0.7-181c0-6.7 7.7-10.5 12.9-6.3l56.4 44.1C258.2 27.1 377.8-36 512.2-36c229.2 0 415.5 183.7 419.8 411.8 0.1 4.5-3.5 8.2-8 8.2z"  horiz-adv-x="1024" />

    
    <glyph glyph-name="setting" unicode="&#59279;" d="M924.8 270.3l-65.5 56c3.1 19 4.7 38.4 4.7 57.8s-1.6 38.8-4.7 57.8l65.5 56c10.1 8.6 13.8 22.6 9.3 35.2l-0.9 2.6c-18.1 50.5-44.9 96.9-79.7 137.9l-1.8 2.1c-8.6 10.1-22.5 13.9-35.1 9.5l-81.3-28.9c-30 24.6-63.5 44-99.7 57.6l-15.7 85c-2.4 13.1-12.7 23.3-25.8 25.7l-2.7 0.5c-52.1 9.4-106.9 9.4-159 0l-2.7-0.5c-13.1-2.4-23.4-12.6-25.8-25.7l-15.8-85.4c-35.9-13.6-69.2-32.9-99-57.4l-81.9 29.1c-12.5 4.4-26.5 0.7-35.1-9.5l-1.8-2.1c-34.8-41.1-61.6-87.5-79.7-137.9l-0.9-2.6c-4.5-12.5-0.8-26.5 9.3-35.2l66.3-56.6c-3.1-18.8-4.6-38-4.6-57.1 0-19.2 1.5-38.4 4.6-57.1L99 270.5c-10.1-8.6-13.8-22.6-9.3-35.2l0.9-2.6c18.1-50.4 44.9-96.9 79.7-137.9l1.8-2.1c8.6-10.1 22.5-13.9 35.1-9.5l81.9 29.1c29.8-24.5 63.1-43.9 99-57.4l15.8-85.4c2.4-13.1 12.7-23.3 25.8-25.7l2.7-0.5c26.1-4.7 52.8-7.1 79.5-7.1 26.7 0 53.5 2.4 79.5 7.1l2.7 0.5c13.1 2.4 23.4 12.6 25.8 25.7l15.7 85c36.2 13.6 69.7 32.9 99.7 57.6l81.3-28.9c12.5-4.4 26.5-0.7 35.1 9.5l1.8 2.1c34.8 41.1 61.6 87.5 79.7 137.9l0.9 2.6c4.5 12.3 0.8 26.3-9.3 35zM788.3 430.1c2.5-15.1 3.8-30.6 3.8-46.1s-1.3-31-3.8-46.1l-6.6-40.1 74.7-63.9c-11.3-26.1-25.6-50.7-42.6-73.6L721 193.2l-31.4-25.8c-23.9-19.6-50.5-35-79.3-45.8l-38.1-14.3-17.9-97c-28.1-3.2-56.8-3.2-85 0l-17.9 97.2-37.8 14.5c-28.5 10.8-55 26.2-78.7 45.7l-31.4 25.9-93.4-33.2c-17 22.9-31.2 47.6-42.6 73.6l75.5 64.5-6.5 40c-2.4 14.9-3.7 30.3-3.7 45.5 0 15.3 1.2 30.6 3.7 45.5l6.5 40-75.5 64.5c11.3 26.1 25.6 50.7 42.6 73.6l93.4-33.2 31.4 25.9c23.7 19.5 50.2 34.9 78.7 45.7l37.9 14.3 17.9 97.2c28.1 3.2 56.8 3.2 85 0l17.9-97 38.1-14.3c28.7-10.8 55.4-26.2 79.3-45.8l31.4-25.8 92.8 32.9c17-22.9 31.2-47.6 42.6-73.6L781.8 470l6.5-39.9zM512 570c-97.2 0-176-78.8-176-176s78.8-176 176-176 176 78.8 176 176-78.8 176-176 176z m79.2-255.2C570 293.7 541.9 282 512 282c-29.9 0-58 11.7-79.2 32.8C411.7 336 400 364.1 400 394c0 29.9 11.7 58 32.8 79.2C454 494.4 482.1 506 512 506c29.9 0 58-11.6 79.2-32.8C612.3 452 624 423.9 624 394c0-29.9-11.7-58-32.8-79.2z"  horiz-adv-x="1024" />

    
    <glyph glyph-name="eye" unicode="&#59280;" d="M942.2 409.8C847.4 609.5 704.1 710 512 710c-192.2 0-335.4-100.5-430.2-300.3-7.7-16.2-7.7-35.2 0-51.5C176.6 158.5 319.9 58 512 58c192.2 0 335.4 100.5 430.2 300.3 7.7 16.2 7.7 35 0 51.5zM512 130c-161.3 0-279.4 81.8-362.7 254C232.6 556.2 350.7 638 512 638c161.3 0 279.4-81.8 362.7-254C791.5 211.8 673.4 130 512 130zM508 560c-97.2 0-176-78.8-176-176s78.8-176 176-176 176 78.8 176 176-78.8 176-176 176z m0-288c-61.9 0-112 50.1-112 112s50.1 112 112 112 112-50.1 112-112-50.1-112-112-112z"  horiz-adv-x="1024" />

    
    <glyph glyph-name="location" unicode="&#59281;" d="M854.6 606.9c-18.8 43.4-45.7 82.3-79.9 115.7-34.2 33.4-73.9 59.5-118.2 77.8C610.7 819.4 562.1 829 512 829c-50.1 0-98.7-9.6-144.5-28.5-44.3-18.3-84-44.5-118.2-77.8-34.2-33.4-61.1-72.4-79.9-115.7-19.5-45-29.4-92.8-29.4-142 0-70.6 16.9-140.9 50.1-208.7 26.7-54.5 64-107.6 111-158.1 80.3-86.2 164.5-138.9 188.4-153 6.9-4.1 14.7-6.1 22.4-6.1 7.8 0 15.5 2 22.4 6.1 23.9 14.1 108.1 66.8 188.4 153 47 50.4 84.3 103.6 111 158.1C867.1 324 884 394.2 884 464.9c0 49.2-9.9 97-29.4 142zM512 15.8c-65.9 41.9-300 207.8-300 449.1 0 77.9 31.1 151.1 87.6 206.3C356.3 726.5 431.7 757 512 757s155.7-30.5 212.4-85.9C780.9 616 812 542.8 812 464.9c0-241.3-234.1-407.2-300-449.1zM512 633c-97.2 0-176-78.8-176-176s78.8-176 176-176 176 78.8 176 176-78.8 176-176 176z m79.2-255.2C570 356.7 541.9 345 512 345c-29.9 0-58 11.7-79.2 32.8C411.7 399 400 427.1 400 457c0 29.9 11.7 58 32.8 79.2C454 557.4 482.1 569 512 569c29.9 0 58-11.6 79.2-32.8C612.4 515 624 486.9 624 457c0-29.9-11.6-58-32.8-79.2z"  horiz-adv-x="1024" />

    
    <glyph glyph-name="user" unicode="&#59310;" d="M858.5 132.4c-18.9 44.8-46.1 85-80.6 119.5-34.5 34.5-74.7 61.6-119.5 80.6-0.4 0.2-0.8 0.3-1.2 0.5C719.5 378 760 451.3 760 534c0 137-111 248-248 248S264 671 264 534c0-82.7 40.5-156 102.8-201.1-0.4-0.2-0.8-0.3-1.2-0.5-44.8-18.9-85-46-119.5-80.6-34.5-34.5-61.6-74.7-80.6-119.5C146.9 88.5 137 42 136-5.8c-0.1-4.5 3.5-8.2 8-8.2h60c4.4 0 7.9 3.5 8 7.8 2 77.2 33 149.5 87.8 204.3 56.7 56.7 132 87.9 212.2 87.9s155.5-31.2 212.2-87.9C779 143.3 810 71 812-6.2c0.1-4.4 3.6-7.8 8-7.8h60c4.5 0 8.1 3.7 8 8.2-1 47.8-10.9 94.3-29.5 138.2zM512 362c-45.9 0-89.1 17.9-121.6 50.4S340 488.1 340 534c0 45.9 17.9 89.1 50.4 121.6S466.1 706 512 706s89.1-17.9 121.6-50.4S684 579.9 684 534c0-45.9-17.9-89.1-50.4-121.6S557.9 362 512 362z"  horiz-adv-x="1024" />

    
    <glyph glyph-name="mail" unicode="&#59358;" d="M928 736H96c-17.7 0-32-14.3-32-32v-640c0-17.7 14.3-32 32-32h832c17.7 0 32 14.3 32 32V704c0 17.7-14.3 32-32 32z m-40-110.8V104H136V625.2l-27.6 21.5 39.3 50.5 42.8-33.3h643.1l42.8 33.3 39.3-50.5-27.7-21.5zM833.6 664L512 414 190.4 664l-42.8 33.3-39.3-50.5 27.6-21.5 341.6-265.6c20.2-15.7 48.5-15.7 68.7 0L888 625.2l27.6 21.5-39.3 50.5-42.7-33.2z"  horiz-adv-x="1024" />

    
    <glyph glyph-name="heart" unicode="&#59359;" d="M923 612.4c-13.4 31.1-32.6 58.9-56.9 82.8-24.3 23.8-52.5 42.4-84 55.5-32.5 13.5-66.9 20.3-102.4 20.3-49.3 0-97.4-13.5-139.2-39-10-6.1-19.5-12.8-28.5-20.1-9 7.3-18.5 14-28.5 20.1-41.8 25.5-89.9 39-139.2 39-35.5 0-69.9-6.8-102.4-20.3-31.4-13-59.7-31.7-84-55.5-24.4-23.9-43.5-51.7-56.9-82.8-13.9-32.3-21-66.6-21-101.9 0-33.3 6.8-68 20.3-103.3 11.3-29.5 27.5-60.1 48.2-91 32.8-48.9 77.9-99.9 133.9-151.6 92.8-85.7 184.7-144.9 188.6-147.3l23.7-15.2c10.5-6.7 24-6.7 34.5 0l23.7 15.2c3.9 2.5 95.7 61.6 188.6 147.3 56 51.7 101.1 102.7 133.9 151.6 20.7 30.9 37 61.5 48.2 91 13.5 35.3 20.3 70 20.3 103.3 0.1 35.3-7 69.6-20.9 101.9zM512 81.2S156 309.3 156 510.5C156 612.4 240.3 695 344.3 695c73.1 0 136.5-40.8 167.7-100.4C543.2 654.2 606.6 695 679.7 695c104 0 188.3-82.6 188.3-184.5 0-201.2-356-429.3-356-429.3z"  horiz-adv-x="1024" />

    
    <glyph glyph-name="star" unicode="&#59360;" d="M908.1 542.9l-253.9 36.9L540.7 809.9c-3.1 6.3-8.2 11.4-14.5 14.5-15.8 7.8-35 1.3-42.9-14.5L369.8 579.8l-253.9-36.9c-7-1-13.4-4.3-18.3-9.3-12.3-12.7-12.1-32.9 0.6-45.3l183.7-179.1-43.4-252.9c-1.2-6.9-0.1-14.1 3.2-20.3 8.2-15.6 27.6-21.7 43.2-13.4L512 142l227.1-119.4c6.2-3.3 13.4-4.4 20.3-3.2 17.4 3 29.1 19.5 26.1 36.9l-43.4 252.9 183.7 179.1c5 4.9 8.3 11.3 9.3 18.3 2.7 17.5-9.5 33.7-27 36.3zM664.8 334.4l36.1-210.3L512 223.3 323.1 124l36.1 210.3-152.8 149L417.6 514 512 705.3 606.4 514l211.2-30.7-152.8-148.9z"  horiz-adv-x="1024" />

    
    <glyph glyph-name="edit" unicode="&#59361;" d="M257.7 144c2 0 4 0.2 6 0.5L431.9 174c2 0.4 3.9 1.3 5.3 2.8l423.9 423.9c3.9 3.9 3.9 10.2 0 14.1L694.9 781.1c-1.9 1.9-4.4 2.9-7.1 2.9s-5.2-1-7.1-2.9L256.8 357.2c-1.5-1.5-2.4-3.3-2.8-5.3l-29.5-168.2c-1.9-11.1 1.5-21.9 9.4-29.8 6.6-6.4 14.9-9.9 23.8-9.9z m67.4 174.4L687.8 681l73.3-73.3-362.7-362.6-88.9-15.7 15.6 89zM880 60H144c-17.7 0-32-14.3-32-32v-36c0-4.4 3.6-8 8-8h784c4.4 0 8 3.6 8 8v36c0 17.7-14.3 32-32 32z"  horiz-adv-x="1024" />

    
    <glyph glyph-name="unorderedlist" unicode="&#59380;" d="M912 704H328c-4.4 0-8-3.6-8-8v-56c0-4.4 3.6-8 8-8h584c4.4 0 8 3.6 8 8v56c0 4.4-3.6 8-8 8zM912 420H328c-4.4 0-8-3.6-8-8v-56c0-4.4 3.6-8 8-8h584c4.4 0 8 3.6 8 8v56c0 4.4-3.6 8-8 8zM912 136H328c-4.4 0-8-3.6-8-8v-56c0-4.4 3.6-8 8-8h584c4.4 0 8 3.6 8 8v56c0 4.4-3.6 8-8 8zM160 668m-56 0a56 56 0 1 1 112 0 56 56 0 1 1-112 0ZM160 384m-56 0a56 56 0 1 1 112 0 56 56 0 1 1-112 0ZM160 100m-56 0a56 56 0 1 1 112 0 56 56 0 1 1-112 0Z"  horiz-adv-x="1024" />

    
    <glyph glyph-name="dingwei1" unicode="&#58955;" d="M512 800A364.8 364.8 0 0 1 147.2 435.2c0-131.584 110.1312-287.232 327.5776-471.3472 21.504-18.176 52.992-18.176 74.4448 0C766.6688 147.968 876.8 303.616 876.8 435.2A364.8 364.8 0 0 1 512 800z m3.2768-786.688a6.4 6.4 0 0 0 0.6144-0.3584l-0.6144 0.3584zM211.2 435.2a300.8 300.8 0 0 0 601.6 0c0-106.5472-99.328-247.6544-300.8-418.9696C310.528 187.5456 211.2 328.6528 211.2 435.2zM512 595.2a160 160 0 1 1 0-320 160 160 0 0 1 0 320z m0-64a96 96 0 1 0 0-192 96 96 0 0 0 0 192z"  horiz-adv-x="1024" />

    
    <glyph glyph-name="check-circle-fill" unicode="&#59460;" d="M512 832C264.6 832 64 631.4 64 384s200.6-448 448-448 448 200.6 448 448S759.4 832 512 832z m193.5-301.7l-210.6-292c-12.7-17.7-39-17.7-51.7 0L318.5 411.1c-3.8 5.3 0 12.7 6.5 12.7h46.9c10.2 0 19.9-4.9 25.9-13.3l71.2-98.8 157.2 218c6 8.3 15.6 13.3 25.9 13.3H699c6.5 0 10.3-7.4 6.5-12.7z"  horiz-adv-x="1024" />

    
    <glyph glyph-name="left-circle-fill" unicode="&#59461;" d="M512 832C264.6 832 64 631.4 64 384s200.6-448 448-448 448 200.6 448 448S759.4 832 512 832z m104-316.9c0-10.2-4.9-19.9-13.2-25.9L457.4 384l145.4-105.2c8.3-6 13.2-15.6 13.2-25.9V206c0-6.5-7.4-10.3-12.7-6.5l-246 178c-4.4 3.2-4.4 9.7 0 12.9l246 178c5.3 3.8 12.7 0.1 12.7-6.5v-46.8z"  horiz-adv-x="1024" />

    
    <glyph glyph-name="down-circle-fill" unicode="&#59462;" d="M512 832C264.6 832 64 631.4 64 384s200.6-448 448-448 448 200.6 448 448S759.4 832 512 832z m184.5-353.7l-178-246c-3.2-4.4-9.7-4.4-12.9 0l-178 246c-3.8 5.3 0 12.7 6.5 12.7H381c10.2 0 19.9-4.9 25.9-13.2L512 332.4l105.2 145.4c6 8.3 15.6 13.2 25.9 13.2H690c6.5 0 10.3-7.4 6.5-12.7z"  horiz-adv-x="1024" />

    
    <glyph glyph-name="minus-circle-fill" unicode="&#59463;" d="M512 832C264.6 832 64 631.4 64 384s200.6-448 448-448 448 200.6 448 448S759.4 832 512 832z m192-472c0-4.4-3.6-8-8-8H328c-4.4 0-8 3.6-8 8v48c0 4.4 3.6 8 8 8h368c4.4 0 8-3.6 8-8v-48z"  horiz-adv-x="1024" />

    
    <glyph glyph-name="close-circle-fill" unicode="&#59464;" d="M512 832C264.6 832 64 631.4 64 384s200.6-448 448-448 448 200.6 448 448S759.4 832 512 832z m165.4-618.2l-66 0.3L512 332.6l-99.3-118.4-66.1-0.3c-4.4 0-8 3.5-8 8 0 1.9 0.7 3.7 1.9 5.2l130.1 155L340.5 537c-1.2 1.5-1.9 3.3-1.9 5.2 0 4.4 3.6 8 8 8l66.1-0.3L512 431.4l99.3 118.4 66 0.3c4.4 0 8-3.5 8-8 0-1.9-0.7-3.7-1.9-5.2L553.5 382l130-155c1.2-1.5 1.9-3.3 1.9-5.2 0-4.4-3.6-8-8-8z"  horiz-adv-x="1024" />

    
    <glyph glyph-name="info-circle-fill" unicode="&#59465;" d="M512 832C264.6 832 64 631.4 64 384s200.6-448 448-448 448 200.6 448 448S759.4 832 512 832z m32-664c0-4.4-3.6-8-8-8h-48c-4.4 0-8 3.6-8 8V440c0 4.4 3.6 8 8 8h48c4.4 0 8-3.6 8-8v-272z m-32 344c-26.5 0-48 21.5-48 48s21.5 48 48 48 48-21.5 48-48-21.5-48-48-48z"  horiz-adv-x="1024" />

    
    <glyph glyph-name="up-circle-fill" unicode="&#59466;" d="M512 832C264.6 832 64 631.4 64 384s200.6-448 448-448 448 200.6 448 448S759.4 832 512 832z m178-555h-46.9c-10.2 0-19.9 4.9-25.9 13.2L512 435.6 406.8 290.2c-6-8.3-15.6-13.2-25.9-13.2H334c-6.5 0-10.3 7.4-6.5 12.7l178 246c3.2 4.4 9.7 4.4 12.9 0l178-246c3.9-5.3 0.1-12.7-6.4-12.7z"  horiz-adv-x="1024" />

    
    <glyph glyph-name="right-circle-fill" unicode="&#59467;" d="M512 832C264.6 832 64 631.4 64 384s200.6-448 448-448 448 200.6 448 448S759.4 832 512 832z m154.7-454.5l-246-178c-5.3-3.8-12.7 0-12.7 6.5v46.9c0 10.2 4.9 19.9 13.2 25.9L566.6 384 421.2 489.2c-8.3 6-13.2 15.6-13.2 25.9V562c0 6.5 7.4 10.3 12.7 6.5l246-178c4.4-3.2 4.4-9.8 0-13z"  horiz-adv-x="1024" />

    
    <glyph glyph-name="plus-circle-fill" unicode="&#59468;" d="M512 832C264.6 832 64 631.4 64 384s200.6-448 448-448 448 200.6 448 448S759.4 832 512 832z m192-472c0-4.4-3.6-8-8-8H544v-152c0-4.4-3.6-8-8-8h-48c-4.4 0-8 3.6-8 8V352H328c-4.4 0-8 3.6-8 8v48c0 4.4 3.6 8 8 8h152V568c0 4.4 3.6 8 8 8h48c4.4 0 8-3.6 8-8v-152h152c4.4 0 8-3.6 8-8v-48z"  horiz-adv-x="1024" />

    
    <glyph glyph-name="question-circle-fill" unicode="&#59469;" d="M512 832C264.6 832 64 631.4 64 384s200.6-448 448-448 448 200.6 448 448S759.4 832 512 832z m0-708c-22.1 0-40 17.9-40 40s17.9 40 40 40 40-17.9 40-40-17.9-40-40-40z m62.9 219.5c-18.5-7.1-30.9-25.1-30.9-44.8V276c0-4.4-3.6-8-8-8h-48c-4.4 0-8 3.6-8 8v21.5c0 23.1 6.7 45.9 19.9 64.9 12.9 18.6 30.9 32.8 52.1 40.9 34 13.1 56 41.6 56 72.7 0 44.1-43.1 80-96 80s-96-35.9-96-80v-7.6c0-4.4-3.6-8-8-8h-48c-4.4 0-8 3.6-8 8V476c0 39.3 17.2 76 48.4 103.3C430.4 605.6 470 620 512 620s81.6-14.5 111.6-40.7C654.8 552 672 515.3 672 476c0-57.8-38.1-109.8-97.1-132.5z"  horiz-adv-x="1024" />

    
    <glyph glyph-name="poweroff-circle-fill" unicode="&#59470;" d="M512 832C264.6 832 64 631.4 64 384s200.6-448 448-448 448 200.6 448 448S759.4 832 512 832z m-80-600c0-4.4-3.6-8-8-8h-48c-4.4 0-8 3.6-8 8V536c0 4.4 3.6 8 8 8h48c4.4 0 8-3.6 8-8v-304z m224 0c0-4.4-3.6-8-8-8h-48c-4.4 0-8 3.6-8 8V536c0 4.4 3.6 8 8 8h48c4.4 0 8-3.6 8-8v-304z"  horiz-adv-x="1024" />

    
    <glyph glyph-name="play-circle-fill" unicode="&#59471;" d="M512 832C264.6 832 64 631.4 64 384s200.6-448 448-448 448 200.6 448 448S759.4 832 512 832z m144.1-454.9L437.7 218.2c-1.4-1-3-1.5-4.7-1.5-4.4 0-8 3.6-8 8V542.3c0 1.7 0.5 3.3 1.5 4.7 2.6 3.6 7.6 4.4 11.2 1.8L656.1 390c0.7-0.5 1.3-1.1 1.8-1.8 2.6-3.5 1.8-8.5-1.8-11.1z"  horiz-adv-x="1024" />

    
    <glyph glyph-name="warning-circle-fill" unicode="&#59472;" d="M512 832C264.6 832 64 631.4 64 384s200.6-448 448-448 448 200.6 448 448S759.4 832 512 832z m-32-232c0 4.4 3.6 8 8 8h48c4.4 0 8-3.6 8-8v-272c0-4.4-3.6-8-8-8h-48c-4.4 0-8 3.6-8 8V600z m32-440c-26.5 0-48 21.5-48 48s21.5 48 48 48 48-21.5 48-48-21.5-48-48-48z"  horiz-adv-x="1024" />

    
    <glyph glyph-name="heart-fill" unicode="&#59473;" d="M923 612.4c-13.4 31.1-32.6 58.9-56.9 82.8-24.3 23.8-52.5 42.4-84 55.5-32.5 13.5-66.9 20.3-102.4 20.3-49.3 0-97.4-13.5-139.2-39-10-6.1-19.5-12.8-28.5-20.1-9 7.3-18.5 14-28.5 20.1-41.8 25.5-89.9 39-139.2 39-35.5 0-69.9-6.8-102.4-20.3-31.4-13-59.7-31.7-84-55.5-24.4-23.9-43.5-51.7-56.9-82.8-13.9-32.3-21-66.6-21-101.9 0-33.3 6.8-68 20.3-103.3 11.3-29.5 27.5-60.1 48.2-91 32.8-48.9 77.9-99.9 133.9-151.6 92.8-85.7 184.7-144.9 188.6-147.3l23.7-15.2c10.5-6.7 24-6.7 34.5 0l23.7 15.2c3.9 2.5 95.7 61.6 188.6 147.3 56 51.7 101.1 102.7 133.9 151.6 20.7 30.9 37 61.5 48.2 91 13.5 35.3 20.3 70 20.3 103.3 0.1 35.3-7 69.6-20.9 101.9z"  horiz-adv-x="1024" />

    
    <glyph glyph-name="message-fill" unicode="&#59474;" d="M924.3 557.6c-22.5 53.7-54.9 101.9-96.1 143.3-41.2 41.3-89.3 73.8-143 96.3C630.3 820.3 572.1 832 512 832h-2c-60.5-0.3-119-12.3-174.1-35.9-53.2-22.8-100.9-55.2-141.7-96.5-40.8-41.3-72.8-89.3-95-142.8C76.3 501.4 64.7 442.5 65 381.9c0.3-69.4 16.9-138.3 47.9-199.9v-152c0-25.4 20.6-46 45.9-46h151.8c61.5-31.1 130.2-47.7 199.5-48h2.1c59.8 0 117.7 11.6 172.3 34.3 53.4 22.3 101.4 54.3 142.5 95.2 41.2 40.9 73.6 88.7 96.3 142 23.5 55.2 35.5 113.9 35.8 174.5 0.2 60.9-11.6 120-34.8 175.6zM312.4 336c-26.4 0-47.9 21.5-47.9 48s21.5 48 47.9 48 47.9-21.5 47.9-48-21.4-48-47.9-48z m199.6 0c-26.4 0-47.9 21.5-47.9 48s21.5 48 47.9 48 47.9-21.5 47.9-48-21.5-48-47.9-48z m199.6 0c-26.4 0-47.9 21.5-47.9 48s21.5 48 47.9 48 47.9-21.5 47.9-48-21.5-48-47.9-48z"  horiz-adv-x="1024" />

    
    <glyph glyph-name="xianka" unicode="&#58913;" d="M890 704H114v39c0 13.807-11.193 25-25 25s-25-11.193-25-25v-718c0-13.807 11.193-25 25-25s25 11.193 25 25V192h80v-58c0-38.66 31.34-70 70-70h180c38.66 0 70 31.34 70 70v58h50v-58c0-38.66 31.34-70 70-70h110c38.66 0 70 31.34 70 70v58h76c38.66 0 70 31.34 70 70V634c0 38.66-31.34 70-70 70zM464 134c0-11.028-8.972-20-20-20H264c-11.028 0-20 8.972-20 20v58h220v-58z m300 0c0-11.028-8.972-20-20-20H634c-11.028 0-20 8.972-20 20v58h150v-58z m146 128c0-11.028-8.972-20-20-20H114V654h776c11.028 0 20-8.972 20-20v-372zM695 613c-91.127 0-165-73.873-165-165s73.873-165 165-165 165 73.873 165 165-73.873 165-165 165z m81.317-246.317C754.597 344.962 725.718 333 695 333s-59.597 11.962-81.317 33.683C591.962 388.403 580 417.282 580 448c0 30.718 11.962 59.597 33.683 81.317C635.403 551.038 664.282 563 695 563s59.597-11.962 81.317-33.683C798.038 507.597 810 478.718 810 448c0-30.718-11.962-59.597-33.683-81.317zM745 473h-25v25c0 13.807-11.193 25-25 25s-25-11.193-25-25v-25h-25c-13.807 0-25-11.193-25-25s11.193-25 25-25h25v-25c0-13.807 11.193-25 25-25s25 11.193 25 25v25h25c13.807 0 25 11.193 25 25s-11.193 25-25 25zM419 573H209c-13.807 0-25-11.193-25-25s11.193-25 25-25h210c13.807 0 25 11.193 25 25s-11.193 25-25 25zM419 473H209c-13.807 0-25-11.193-25-25s11.193-25 25-25h210c13.807 0 25 11.193 25 25s-11.193 25-25 25zM419 373H209c-13.807 0-25-11.193-25-25s11.193-25 25-25h210c13.807 0 25 11.193 25 25s-11.193 25-25 25z"  horiz-adv-x="1024" />

    
    </font>
</defs>
</svg>
